<svg width="262" height="42" viewBox="0 0 262 42" fill="none" xmlns="http://www.w3.org/2000/svg">
<path d="M12.2465 0.77265C13.56 0.77265 14.7963 1.0302 15.9552 1.5453C17.14 2.03465 18.1702 2.71715 19.0458 3.59282C19.9215 4.46849 20.6169 5.49869 21.132 6.68342C21.6471 7.8424 21.9046 9.09152 21.9046 10.4308C21.9046 11.7443 21.6471 12.9934 21.132 14.1781C20.6426 15.3629 19.9601 16.3931 19.0845 17.2687C18.2088 18.1444 17.1786 18.8398 15.9939 19.3549C14.8349 19.87 13.5858 20.1275 12.2465 20.1275H6.1812V27.8154H0V0.77265H12.2465ZM11.2034 14.719C11.7958 14.719 12.3495 14.6031 12.8646 14.3713C13.3797 14.1395 13.8304 13.8304 14.2168 13.4441C14.6031 13.0578 14.8993 12.6071 15.1053 12.092C15.3371 11.5769 15.453 11.0231 15.453 10.4308C15.453 9.83841 15.3371 9.28468 15.1053 8.76958C14.8993 8.25448 14.6031 7.80377 14.2168 7.41744C13.8304 7.03112 13.3797 6.73493 12.8646 6.5289C12.3495 6.2971 11.7958 6.1812 11.2034 6.1812H6.1812V14.719H11.2034Z" fill="#467A00"/>
<path d="M23.8299 14.294C23.8299 12.3366 24.2162 10.4952 24.9889 8.76958C25.7615 7.01824 26.7917 5.49869 28.0795 4.21095C29.393 2.92319 30.9126 1.90587 32.6381 1.15897C34.3637 0.386325 36.1923 0 38.124 0C40.0813 0 41.9228 0.386325 43.6484 1.15897C45.3997 1.93163 46.9193 2.9747 48.207 4.28821C49.4948 5.60171 50.5121 7.12126 51.259 8.84685C52.0317 10.5724 52.418 12.3882 52.418 14.294C52.418 16.2514 52.0317 18.0929 51.259 19.8185C50.4864 21.5441 49.4433 23.0636 48.1298 24.3771C46.8163 25.6649 45.2967 26.6951 43.5711 27.4677C41.8456 28.2146 40.0298 28.5881 38.124 28.5881C36.1151 28.5881 34.2349 28.1889 32.4836 27.3905C30.758 26.592 29.2514 25.5361 27.9636 24.2226C26.6759 22.9091 25.6585 21.3895 24.9116 19.664C24.1905 17.9384 23.8299 16.1484 23.8299 14.294ZM30.2816 14.294C30.3331 15.4273 30.552 16.509 30.9383 17.5392C31.3246 18.5694 31.8526 19.4837 32.5222 20.2821C33.2176 21.0805 34.0289 21.7243 34.9561 22.2137C35.909 22.6773 36.965 22.9091 38.124 22.9091C39.2829 22.9091 40.3389 22.6644 41.2918 22.1751C42.2705 21.66 43.1075 21.0032 43.8029 20.2048C44.4983 19.3806 45.0263 18.4535 45.3869 17.4233C45.7732 16.3931 45.9664 15.35 45.9664 14.294C45.9664 13.1866 45.7603 12.1177 45.3482 11.0875C44.9619 10.0316 44.4082 9.1044 43.687 8.30599C42.9916 7.50759 42.1675 6.87659 41.2146 6.413C40.2616 5.92365 39.2314 5.67898 38.124 5.67898C36.965 5.67898 35.8961 5.93653 34.9175 6.45163C33.9645 6.94097 33.1404 7.59773 32.445 8.42189C31.7496 9.22029 31.2087 10.1346 30.8224 11.1648C30.4618 12.195 30.2816 13.2381 30.2816 14.294Z" fill="#467A00"/>
<path d="M76.9647 10.1217C76.9647 11.1262 76.8102 12.0791 76.5011 12.9805C76.2178 13.882 75.8057 14.719 75.2649 15.4916C74.724 16.2643 74.0802 16.9468 73.3333 17.5392C72.5864 18.1058 71.7751 18.5565 70.8994 18.8913L78.5487 27.8154H70.9767L63.8297 19.4708H62.4775V27.8154H56.2963V0.77265H67.6157C68.9034 0.77265 70.1139 1.01732 71.2471 1.50667C72.3803 1.99601 73.3719 2.66564 74.2218 3.51556C75.0717 4.33972 75.7414 5.31841 76.2307 6.45163C76.72 7.58485 76.9647 8.80821 76.9647 10.1217ZM66.6112 6.1812H62.4775V14.0622H66.6112C67.1521 14.0622 67.6543 13.9592 68.1179 13.7532C68.6072 13.5471 69.0322 13.2638 69.3927 12.9033C69.7533 12.5427 70.0366 12.1306 70.2427 11.667C70.4487 11.1777 70.5517 10.6626 70.5517 10.1217C70.5517 9.58086 70.4487 9.07864 70.2427 8.61505C70.0366 8.12571 69.7533 7.70075 69.3927 7.34018C69.0322 6.97961 68.6072 6.6963 68.1179 6.49026C67.6543 6.28422 67.1521 6.1812 66.6112 6.1812Z" fill="#467A00"/>
<path d="M86.8287 27.8154V6.1812H78.5613V0.77265H101.277V6.1812H93.0099V27.8154H86.8287Z" fill="#467A00"/>
<path d="M110.549 18.3118V27.8154H104.368V0.77265H122.641V6.1812H110.549V12.9033H119.087V18.3118H110.549Z" fill="#467A00"/>
<path d="M123.822 14.294C123.822 12.3366 124.208 10.4952 124.981 8.76958C125.753 7.01824 126.784 5.49869 128.071 4.21095C129.385 2.92319 130.904 1.90587 132.63 1.15897C134.356 0.386325 136.184 0 138.116 0C140.073 0 141.915 0.386325 143.64 1.15897C145.392 1.93163 146.911 2.9747 148.199 4.28821C149.487 5.60171 150.504 7.12126 151.251 8.84685C152.023 10.5724 152.41 12.3882 152.41 14.294C152.41 16.2514 152.023 18.0929 151.251 19.8185C150.478 21.5441 149.435 23.0636 148.122 24.3771C146.808 25.6649 145.289 26.6951 143.563 27.4677C141.837 28.2146 140.022 28.5881 138.116 28.5881C136.107 28.5881 134.227 28.1889 132.475 27.3905C130.75 26.592 129.243 25.5361 127.955 24.2226C126.668 22.9091 125.65 21.3895 124.903 19.664C124.182 17.9384 123.822 16.1484 123.822 14.294ZM130.273 14.294C130.325 15.4273 130.544 16.509 130.93 17.5392C131.316 18.5694 131.844 19.4837 132.514 20.2821C133.209 21.0805 134.021 21.7243 134.948 22.2137C135.901 22.6773 136.957 22.9091 138.116 22.9091C139.275 22.9091 140.331 22.6644 141.284 22.1751C142.262 21.66 143.099 21.0032 143.795 20.2048C144.49 19.3806 145.018 18.4535 145.379 17.4233C145.765 16.3931 145.958 15.35 145.958 14.294C145.958 13.1866 145.752 12.1177 145.34 11.0875C144.954 10.0316 144.4 9.1044 143.679 8.30599C142.983 7.50759 142.159 6.87659 141.206 6.413C140.253 5.92365 139.223 5.67898 138.116 5.67898C136.957 5.67898 135.888 5.93653 134.909 6.45163C133.956 6.94097 133.132 7.59773 132.437 8.42189C131.741 9.22029 131.201 10.1346 130.814 11.1648C130.454 12.195 130.273 13.2381 130.273 14.294Z" fill="#467A00"/>
<path d="M175.488 27.8154H156.288V0.77265H162.469V22.4069H175.488V27.8154Z" fill="#467A00"/>
<path d="M184.287 0.77265V27.8154H178.183V0.77265H184.287Z" fill="#467A00"/>
<path d="M187.762 14.294C187.762 12.3366 188.148 10.4952 188.921 8.76958C189.693 7.01824 190.723 5.49869 192.011 4.21095C193.325 2.92319 194.844 1.90587 196.57 1.15897C198.295 0.386325 200.124 0 202.056 0C204.013 0 205.854 0.386325 207.58 1.15897C209.331 1.93163 210.851 2.9747 212.139 4.28821C213.426 5.60171 214.444 7.12126 215.191 8.84685C215.963 10.5724 216.35 12.3882 216.35 14.294C216.35 16.2514 215.963 18.0929 215.191 19.8185C214.418 21.5441 213.375 23.0636 212.061 24.3771C210.748 25.6649 209.228 26.6951 207.503 27.4677C205.777 28.2146 203.961 28.5881 202.056 28.5881C200.047 28.5881 198.167 28.1889 196.415 27.3905C194.69 26.592 193.183 25.5361 191.895 24.2226C190.607 22.9091 189.59 21.3895 188.843 19.664C188.122 17.9384 187.762 16.1484 187.762 14.294ZM194.213 14.294C194.265 15.4273 194.484 16.509 194.87 17.5392C195.256 18.5694 195.784 19.4837 196.454 20.2821C197.149 21.0805 197.961 21.7243 198.888 22.2137C199.841 22.6773 200.897 22.9091 202.056 22.9091C203.215 22.9091 204.271 22.6644 205.223 22.1751C206.202 21.66 207.039 21.0032 207.735 20.2048C208.43 19.3806 208.958 18.4535 209.319 17.4233C209.705 16.3931 209.898 15.35 209.898 14.294C209.898 13.1866 209.692 12.1177 209.28 11.0875C208.894 10.0316 208.34 9.1044 207.619 8.30599C206.923 7.50759 206.099 6.87659 205.146 6.413C204.193 5.92365 203.163 5.67898 202.056 5.67898C200.897 5.67898 199.828 5.93653 198.849 6.45163C197.896 6.94097 197.072 7.59773 196.377 8.42189C195.681 9.22029 195.14 10.1346 194.754 11.1648C194.393 12.195 194.213 13.2381 194.213 14.294Z" fill="#467A00"/>
<mask id="path-2-outside-1_139_30" maskUnits="userSpaceOnUse" x="177.594" y="24.2952" width="84" height="18" fill="black">
<rect fill="white" x="177.594" y="24.2952" width="84" height="18"/>
<path d="M181.413 35.4389C181.3 35.8201 181.243 36.1909 181.243 36.5515C181.243 37.149 181.413 37.6023 181.753 37.9114C182.093 38.2204 182.52 38.375 183.036 38.375C183.448 38.375 183.844 38.2771 184.225 38.0814C184.617 37.8753 184.921 37.5972 185.137 37.2469C185.364 36.8863 185.451 36.4794 185.4 36.0261C185.348 35.614 185.214 35.2174 184.998 34.8362C184.782 34.4448 184.478 33.976 184.086 33.43C183.643 32.8016 183.309 32.271 183.082 31.8383C182.866 31.4057 182.757 30.9524 182.757 30.4785C182.757 30.4064 182.768 30.2879 182.788 30.1231C182.86 29.5565 183.072 29.062 183.422 28.6396C183.772 28.2069 184.21 27.8772 184.735 27.6506C185.261 27.4136 185.817 27.2952 186.404 27.2952C186.61 27.2952 186.822 27.3106 187.038 27.3415C187.46 27.4033 187.821 27.5373 188.12 27.7433C188.429 27.939 188.66 28.1657 188.815 28.4232L187.903 30.8185H187.733C187.919 30.1282 188.011 29.5719 188.011 29.1495C188.011 28.2945 187.661 27.7794 186.961 27.6042C186.806 27.563 186.631 27.5424 186.435 27.5424C186.033 27.5424 185.642 27.6454 185.261 27.8515C184.89 28.0472 184.586 28.3254 184.349 28.6859C184.112 29.0362 183.994 29.4431 183.994 29.9067C183.994 30.3291 184.097 30.7412 184.303 31.143C184.509 31.5344 184.828 32.0392 185.261 32.6574C185.704 33.2755 186.033 33.806 186.25 34.249C186.476 34.692 186.59 35.1453 186.59 35.6089C186.59 36.1034 186.435 36.5876 186.126 37.0615C185.817 37.5251 185.39 37.9011 184.844 38.1895C184.298 38.478 183.695 38.6222 183.036 38.6222C182.84 38.6222 182.696 38.6171 182.603 38.6068C182.129 38.5656 181.717 38.4368 181.367 38.2204C181.027 37.9938 180.769 37.7362 180.594 37.4478L181.258 35.4389H181.413Z"/>
<path d="M198.445 27.7124C198.115 27.7124 197.863 27.7691 197.688 27.8824C197.513 27.9957 197.348 28.2275 197.193 28.5778L193.933 37.386C193.871 37.5714 193.84 37.7259 193.84 37.8496C193.84 37.9732 193.892 38.0659 193.995 38.1277C194.098 38.1895 194.268 38.2204 194.505 38.2204V38.375H191.491L191.507 38.2204C191.847 38.1998 192.115 38.1071 192.31 37.9423C192.506 37.7775 192.676 37.5199 192.82 37.1696L194.319 33.1519H190.811L189.251 37.386C189.189 37.5714 189.158 37.7259 189.158 37.8496C189.158 37.9732 189.209 38.0659 189.312 38.1277C189.415 38.1895 189.585 38.2204 189.822 38.2204V38.375H186.809L186.824 38.2204C187.164 38.1998 187.432 38.1071 187.628 37.9423C187.824 37.7775 187.994 37.5199 188.138 37.1696L191.213 28.8868C191.337 28.5263 191.399 28.2687 191.399 28.1142C191.399 27.9596 191.347 27.8566 191.244 27.8051C191.141 27.7433 190.971 27.7124 190.734 27.7124L190.765 27.5579H193.825L193.763 27.7124C193.433 27.7124 193.181 27.7691 193.006 27.8824C192.831 27.9957 192.666 28.2275 192.511 28.5778L190.919 32.8428H194.427L195.895 28.8868C196.019 28.5263 196.081 28.2687 196.081 28.1142C196.081 27.9596 196.029 27.8566 195.926 27.8051C195.823 27.7433 195.653 27.7124 195.416 27.7124L195.447 27.5579H198.507L198.445 27.7124Z"/>
<path d="M202.682 27.7124C202.352 27.7124 202.099 27.7691 201.924 27.8824C201.749 27.9957 201.584 28.2275 201.43 28.5778L198.169 37.386C198.107 37.5714 198.077 37.7259 198.077 37.8496C198.077 37.9732 198.128 38.0659 198.231 38.1277C198.334 38.1895 198.504 38.2204 198.741 38.2204V38.375H195.728L195.743 38.2204C196.083 38.1998 196.351 38.1071 196.547 37.9423C196.742 37.7775 196.912 37.5199 197.057 37.1696L200.132 28.8868C200.255 28.5263 200.317 28.2687 200.317 28.1142C200.317 27.9596 200.266 27.8566 200.163 27.8051C200.06 27.7433 199.89 27.7124 199.653 27.7124L199.684 27.5579H202.743L202.682 27.7124Z"/>
<path d="M211.645 27.5579L211.629 27.7124C211.248 27.7124 210.949 27.8206 210.733 28.0369C210.527 28.2429 210.321 28.6344 210.115 29.2113L207.009 38.4059H206.669L206.715 38.2513L206.669 38.3904L204.846 28.5623L204.722 28.9023L202.095 36.737C201.951 37.1902 201.879 37.5148 201.879 37.7105C201.879 37.8959 201.935 38.0299 202.049 38.1123C202.162 38.1844 202.347 38.2204 202.605 38.2204V38.375H200.21L200.225 38.2204C200.596 38.2204 200.884 38.1277 201.09 37.9423C201.297 37.7465 201.497 37.3911 201.693 36.876L204.305 29.1032C204.315 29.0723 204.325 29.0465 204.336 29.0259C204.346 28.995 204.356 28.9692 204.367 28.9486L204.459 28.6396C204.531 28.4232 204.567 28.243 204.567 28.0987C204.567 27.9442 204.516 27.8412 204.413 27.7897C204.32 27.7382 204.155 27.7124 203.918 27.7124L203.98 27.5579H205.85L207.442 36.0879L209.806 29.0414C209.919 28.6705 209.976 28.3975 209.976 28.2223C209.976 28.0369 209.919 27.9081 209.806 27.836C209.693 27.7536 209.507 27.7124 209.25 27.7124V27.5579H211.645Z"/>
<path d="M221.69 27.7124C221.422 27.7124 221.211 27.7485 221.056 27.8206C220.902 27.8824 220.758 28.0112 220.624 28.2069C220.5 28.4026 220.366 28.7014 220.222 29.1032L217.997 35.068C217.585 36.16 217.028 36.9894 216.328 37.556C215.627 38.1226 214.901 38.4059 214.149 38.4059C213.593 38.4059 213.165 38.2616 212.866 37.9732C212.568 37.6744 212.418 37.283 212.418 36.7988C212.418 36.4485 212.511 36.1394 212.696 35.8716C212.882 35.6037 213.103 35.4698 213.361 35.4698C213.453 35.4698 213.536 35.4853 213.608 35.5162C213.824 35.5986 213.933 35.7583 213.933 35.9952C213.933 36.2012 213.85 36.4279 213.685 36.6751C213.469 36.9945 213.361 37.283 213.361 37.5405C213.361 37.7362 213.433 37.8856 213.577 37.9886C213.711 38.0917 213.907 38.1432 214.164 38.1432C214.545 38.1432 214.885 38.0299 215.184 37.8032C215.493 37.5663 215.787 37.2005 216.065 36.706C216.353 36.2012 216.657 35.5213 216.977 34.6662L219.248 28.5623C219.3 28.3563 219.326 28.2017 219.326 28.0987C219.326 27.9442 219.274 27.8412 219.171 27.7897C219.068 27.7382 218.898 27.7124 218.661 27.7124L218.692 27.5579H221.752L221.69 27.7124Z"/>
<path d="M225.77 27.7124C225.441 27.7124 225.188 27.7691 225.013 27.8824C224.838 27.9957 224.673 28.2275 224.519 28.5778L221.258 37.386C221.196 37.5714 221.165 37.7259 221.165 37.8496C221.165 37.9732 221.217 38.0659 221.32 38.1277C221.423 38.1895 221.593 38.2204 221.83 38.2204V38.375H218.817L218.832 38.2204C219.172 38.1998 219.44 38.1071 219.636 37.9423C219.831 37.7775 220.001 37.5199 220.146 37.1696L223.221 28.8868C223.344 28.5263 223.406 28.2687 223.406 28.1142C223.406 27.9596 223.355 27.8566 223.252 27.8051C223.149 27.7433 222.979 27.7124 222.742 27.7124L222.773 27.5579H225.832L225.77 27.7124Z"/>
<path d="M234.734 27.5579L234.718 27.7124C234.337 27.7124 234.038 27.8206 233.822 28.0369C233.616 28.2429 233.41 28.6344 233.204 29.2113L230.098 38.4059H229.758L229.804 38.2513L229.758 38.3904L227.935 28.5623L227.811 28.9023L225.184 36.737C225.04 37.1902 224.968 37.5148 224.968 37.7105C224.968 37.8959 225.024 38.0299 225.138 38.1123C225.251 38.1844 225.436 38.2204 225.694 38.2204V38.375H223.299L223.314 38.2204C223.685 38.2204 223.973 38.1277 224.179 37.9423C224.385 37.7465 224.586 37.3911 224.782 36.876L227.394 29.1032C227.404 29.0723 227.414 29.0465 227.425 29.0259C227.435 28.995 227.445 28.9692 227.455 28.9486L227.548 28.6396C227.62 28.4232 227.656 28.243 227.656 28.0987C227.656 27.9442 227.605 27.8412 227.502 27.7897C227.409 27.7382 227.244 27.7124 227.007 27.7124L227.069 27.5579H228.939L230.531 36.0879L232.895 29.0414C233.008 28.6705 233.065 28.3975 233.065 28.2223C233.065 28.0369 233.008 27.9081 232.895 27.836C232.782 27.7536 232.596 27.7124 232.339 27.7124V27.5579H234.734Z"/>
<path d="M243.582 27.7124C243.252 27.7124 243 27.7691 242.825 27.8824C242.649 27.9957 242.485 28.2275 242.33 28.5778L239.069 37.386C239.008 37.5714 238.977 37.7259 238.977 37.8496C238.977 37.9732 239.028 38.0659 239.131 38.1277C239.234 38.1895 239.404 38.2204 239.641 38.2204V38.375H236.628L236.643 38.2204C236.983 38.1998 237.251 38.1071 237.447 37.9423C237.643 37.7775 237.813 37.5199 237.957 37.1696L239.456 33.1519H235.948L234.387 37.386C234.325 37.5714 234.295 37.7259 234.295 37.8496C234.295 37.9732 234.346 38.0659 234.449 38.1277C234.552 38.1895 234.722 38.2204 234.959 38.2204V38.375H231.946L231.961 38.2204C232.301 38.1998 232.569 38.1071 232.765 37.9423C232.96 37.7775 233.13 37.5199 233.275 37.1696L236.35 28.8868C236.473 28.5263 236.535 28.2687 236.535 28.1142C236.535 27.9596 236.484 27.8566 236.381 27.8051C236.278 27.7433 236.108 27.7124 235.871 27.7124L235.902 27.5579H238.961L238.9 27.7124C238.57 27.7124 238.317 27.7691 238.142 27.8824C237.967 27.9957 237.802 28.2275 237.648 28.5778L236.056 32.8428H239.564L241.032 28.8868C241.156 28.5263 241.217 28.2687 241.217 28.1142C241.217 27.9596 241.166 27.8566 241.063 27.8051C240.96 27.7433 240.79 27.7124 240.553 27.7124L240.584 27.5579H243.644L243.582 27.7124Z"/>
<path d="M249.734 30.8648H249.595L249.673 30.5557C249.734 30.2879 249.791 30.02 249.843 29.7522C249.894 29.4843 249.92 29.2577 249.92 29.0723C249.92 28.6911 249.812 28.3975 249.595 28.1914C249.389 27.9854 249.034 27.8772 248.529 27.8669H246.829L246.366 29.1032L244.975 32.8428H246.69C247.205 32.8428 247.586 32.7295 247.834 32.5028C248.091 32.2762 248.292 31.9568 248.436 31.5447H248.606L248.081 32.9973L247.571 34.5117L247.432 34.4963C247.514 34.1975 247.555 33.9657 247.555 33.8009C247.555 33.5742 247.478 33.4094 247.324 33.3064C247.169 33.2034 246.906 33.1519 246.536 33.1519H244.867L243.507 36.8297L243.043 38.0659H244.928C245.578 38.0659 246.118 37.9268 246.551 37.6487C246.984 37.3705 247.324 37.0409 247.571 36.6597C247.818 36.2785 248.117 35.748 248.467 35.068H248.622L247.2 38.375H240.864L240.911 38.2204C241.23 38.2204 241.472 38.1689 241.637 38.0659C241.802 37.9526 241.962 37.7259 242.116 37.386L245.268 28.8714C245.402 28.4902 245.469 28.2275 245.469 28.0833C245.469 27.939 245.418 27.8412 245.315 27.7897C245.212 27.7382 245.042 27.7124 244.805 27.7124L244.851 27.5579H250.801L249.734 30.8648Z"/>
<path d="M257.204 30.8648H257.065L257.143 30.5557C257.204 30.2879 257.261 30.02 257.312 29.7522C257.364 29.4843 257.39 29.2577 257.39 29.0723C257.39 28.6911 257.282 28.3975 257.065 28.1914C256.859 27.9854 256.504 27.8772 255.999 27.8669H254.299L253.836 29.1032L252.445 32.8428H254.16C254.675 32.8428 255.056 32.7295 255.304 32.5028C255.561 32.2762 255.762 31.9568 255.906 31.5447H256.076L255.551 32.9973L255.041 34.5117L254.902 34.4963C254.984 34.1975 255.025 33.9657 255.025 33.8009C255.025 33.5742 254.948 33.4094 254.794 33.3064C254.639 33.2034 254.376 33.1519 254.006 33.1519H252.337L250.977 36.8297L250.513 38.0659H252.398C253.047 38.0659 253.588 37.9268 254.021 37.6487C254.454 37.3705 254.794 37.0409 255.041 36.6597C255.288 36.2785 255.587 35.748 255.937 35.068H256.092L254.67 38.375H248.334L248.381 38.2204C248.7 38.2204 248.942 38.1689 249.107 38.0659C249.272 37.9526 249.431 37.7259 249.586 37.386L252.738 28.8714C252.872 28.4902 252.939 28.2275 252.939 28.0833C252.939 27.939 252.888 27.8412 252.785 27.7897C252.682 27.7382 252.512 27.7124 252.275 27.7124L252.321 27.5579H258.271L257.204 30.8648Z"/>
</mask>
<path d="M181.413 35.4389C181.3 35.8201 181.243 36.1909 181.243 36.5515C181.243 37.149 181.413 37.6023 181.753 37.9114C182.093 38.2204 182.52 38.375 183.036 38.375C183.448 38.375 183.844 38.2771 184.225 38.0814C184.617 37.8753 184.921 37.5972 185.137 37.2469C185.364 36.8863 185.451 36.4794 185.4 36.0261C185.348 35.614 185.214 35.2174 184.998 34.8362C184.782 34.4448 184.478 33.976 184.086 33.43C183.643 32.8016 183.309 32.271 183.082 31.8383C182.866 31.4057 182.757 30.9524 182.757 30.4785C182.757 30.4064 182.768 30.2879 182.788 30.1231C182.86 29.5565 183.072 29.062 183.422 28.6396C183.772 28.2069 184.21 27.8772 184.735 27.6506C185.261 27.4136 185.817 27.2952 186.404 27.2952C186.61 27.2952 186.822 27.3106 187.038 27.3415C187.46 27.4033 187.821 27.5373 188.12 27.7433C188.429 27.939 188.66 28.1657 188.815 28.4232L187.903 30.8185H187.733C187.919 30.1282 188.011 29.5719 188.011 29.1495C188.011 28.2945 187.661 27.7794 186.961 27.6042C186.806 27.563 186.631 27.5424 186.435 27.5424C186.033 27.5424 185.642 27.6454 185.261 27.8515C184.89 28.0472 184.586 28.3254 184.349 28.6859C184.112 29.0362 183.994 29.4431 183.994 29.9067C183.994 30.3291 184.097 30.7412 184.303 31.143C184.509 31.5344 184.828 32.0392 185.261 32.6574C185.704 33.2755 186.033 33.806 186.25 34.249C186.476 34.692 186.59 35.1453 186.59 35.6089C186.59 36.1034 186.435 36.5876 186.126 37.0615C185.817 37.5251 185.39 37.9011 184.844 38.1895C184.298 38.478 183.695 38.6222 183.036 38.6222C182.84 38.6222 182.696 38.6171 182.603 38.6068C182.129 38.5656 181.717 38.4368 181.367 38.2204C181.027 37.9938 180.769 37.7362 180.594 37.4478L181.258 35.4389H181.413Z" fill="#467A00"/>
<path d="M198.445 27.7124C198.115 27.7124 197.863 27.7691 197.688 27.8824C197.513 27.9957 197.348 28.2275 197.193 28.5778L193.933 37.386C193.871 37.5714 193.84 37.7259 193.84 37.8496C193.84 37.9732 193.892 38.0659 193.995 38.1277C194.098 38.1895 194.268 38.2204 194.505 38.2204V38.375H191.491L191.507 38.2204C191.847 38.1998 192.115 38.1071 192.31 37.9423C192.506 37.7775 192.676 37.5199 192.82 37.1696L194.319 33.1519H190.811L189.251 37.386C189.189 37.5714 189.158 37.7259 189.158 37.8496C189.158 37.9732 189.209 38.0659 189.312 38.1277C189.415 38.1895 189.585 38.2204 189.822 38.2204V38.375H186.809L186.824 38.2204C187.164 38.1998 187.432 38.1071 187.628 37.9423C187.824 37.7775 187.994 37.5199 188.138 37.1696L191.213 28.8868C191.337 28.5263 191.399 28.2687 191.399 28.1142C191.399 27.9596 191.347 27.8566 191.244 27.8051C191.141 27.7433 190.971 27.7124 190.734 27.7124L190.765 27.5579H193.825L193.763 27.7124C193.433 27.7124 193.181 27.7691 193.006 27.8824C192.831 27.9957 192.666 28.2275 192.511 28.5778L190.919 32.8428H194.427L195.895 28.8868C196.019 28.5263 196.081 28.2687 196.081 28.1142C196.081 27.9596 196.029 27.8566 195.926 27.8051C195.823 27.7433 195.653 27.7124 195.416 27.7124L195.447 27.5579H198.507L198.445 27.7124Z" fill="#467A00"/>
<path d="M202.682 27.7124C202.352 27.7124 202.099 27.7691 201.924 27.8824C201.749 27.9957 201.584 28.2275 201.43 28.5778L198.169 37.386C198.107 37.5714 198.077 37.7259 198.077 37.8496C198.077 37.9732 198.128 38.0659 198.231 38.1277C198.334 38.1895 198.504 38.2204 198.741 38.2204V38.375H195.728L195.743 38.2204C196.083 38.1998 196.351 38.1071 196.547 37.9423C196.742 37.7775 196.912 37.5199 197.057 37.1696L200.132 28.8868C200.255 28.5263 200.317 28.2687 200.317 28.1142C200.317 27.9596 200.266 27.8566 200.163 27.8051C200.06 27.7433 199.89 27.7124 199.653 27.7124L199.684 27.5579H202.743L202.682 27.7124Z" fill="#467A00"/>
<path d="M211.645 27.5579L211.629 27.7124C211.248 27.7124 210.949 27.8206 210.733 28.0369C210.527 28.2429 210.321 28.6344 210.115 29.2113L207.009 38.4059H206.669L206.715 38.2513L206.669 38.3904L204.846 28.5623L204.722 28.9023L202.095 36.737C201.951 37.1902 201.879 37.5148 201.879 37.7105C201.879 37.8959 201.935 38.0299 202.049 38.1123C202.162 38.1844 202.347 38.2204 202.605 38.2204V38.375H200.21L200.225 38.2204C200.596 38.2204 200.884 38.1277 201.09 37.9423C201.297 37.7465 201.497 37.3911 201.693 36.876L204.305 29.1032C204.315 29.0723 204.325 29.0465 204.336 29.0259C204.346 28.995 204.356 28.9692 204.367 28.9486L204.459 28.6396C204.531 28.4232 204.567 28.243 204.567 28.0987C204.567 27.9442 204.516 27.8412 204.413 27.7897C204.32 27.7382 204.155 27.7124 203.918 27.7124L203.98 27.5579H205.85L207.442 36.0879L209.806 29.0414C209.919 28.6705 209.976 28.3975 209.976 28.2223C209.976 28.0369 209.919 27.9081 209.806 27.836C209.693 27.7536 209.507 27.7124 209.25 27.7124V27.5579H211.645Z" fill="#467A00"/>
<path d="M221.69 27.7124C221.422 27.7124 221.211 27.7485 221.056 27.8206C220.902 27.8824 220.758 28.0112 220.624 28.2069C220.5 28.4026 220.366 28.7014 220.222 29.1032L217.997 35.068C217.585 36.16 217.028 36.9894 216.328 37.556C215.627 38.1226 214.901 38.4059 214.149 38.4059C213.593 38.4059 213.165 38.2616 212.866 37.9732C212.568 37.6744 212.418 37.283 212.418 36.7988C212.418 36.4485 212.511 36.1394 212.696 35.8716C212.882 35.6037 213.103 35.4698 213.361 35.4698C213.453 35.4698 213.536 35.4853 213.608 35.5162C213.824 35.5986 213.933 35.7583 213.933 35.9952C213.933 36.2012 213.85 36.4279 213.685 36.6751C213.469 36.9945 213.361 37.283 213.361 37.5405C213.361 37.7362 213.433 37.8856 213.577 37.9886C213.711 38.0917 213.907 38.1432 214.164 38.1432C214.545 38.1432 214.885 38.0299 215.184 37.8032C215.493 37.5663 215.787 37.2005 216.065 36.706C216.353 36.2012 216.657 35.5213 216.977 34.6662L219.248 28.5623C219.3 28.3563 219.326 28.2017 219.326 28.0987C219.326 27.9442 219.274 27.8412 219.171 27.7897C219.068 27.7382 218.898 27.7124 218.661 27.7124L218.692 27.5579H221.752L221.69 27.7124Z" fill="#467A00"/>
<path d="M225.77 27.7124C225.441 27.7124 225.188 27.7691 225.013 27.8824C224.838 27.9957 224.673 28.2275 224.519 28.5778L221.258 37.386C221.196 37.5714 221.165 37.7259 221.165 37.8496C221.165 37.9732 221.217 38.0659 221.32 38.1277C221.423 38.1895 221.593 38.2204 221.83 38.2204V38.375H218.817L218.832 38.2204C219.172 38.1998 219.44 38.1071 219.636 37.9423C219.831 37.7775 220.001 37.5199 220.146 37.1696L223.221 28.8868C223.344 28.5263 223.406 28.2687 223.406 28.1142C223.406 27.9596 223.355 27.8566 223.252 27.8051C223.149 27.7433 222.979 27.7124 222.742 27.7124L222.773 27.5579H225.832L225.77 27.7124Z" fill="#467A00"/>
<path d="M234.734 27.5579L234.718 27.7124C234.337 27.7124 234.038 27.8206 233.822 28.0369C233.616 28.2429 233.41 28.6344 233.204 29.2113L230.098 38.4059H229.758L229.804 38.2513L229.758 38.3904L227.935 28.5623L227.811 28.9023L225.184 36.737C225.04 37.1902 224.968 37.5148 224.968 37.7105C224.968 37.8959 225.024 38.0299 225.138 38.1123C225.251 38.1844 225.436 38.2204 225.694 38.2204V38.375H223.299L223.314 38.2204C223.685 38.2204 223.973 38.1277 224.179 37.9423C224.385 37.7465 224.586 37.3911 224.782 36.876L227.394 29.1032C227.404 29.0723 227.414 29.0465 227.425 29.0259C227.435 28.995 227.445 28.9692 227.455 28.9486L227.548 28.6396C227.62 28.4232 227.656 28.243 227.656 28.0987C227.656 27.9442 227.605 27.8412 227.502 27.7897C227.409 27.7382 227.244 27.7124 227.007 27.7124L227.069 27.5579H228.939L230.531 36.0879L232.895 29.0414C233.008 28.6705 233.065 28.3975 233.065 28.2223C233.065 28.0369 233.008 27.9081 232.895 27.836C232.782 27.7536 232.596 27.7124 232.339 27.7124V27.5579H234.734Z" fill="#467A00"/>
<path d="M243.582 27.7124C243.252 27.7124 243 27.7691 242.825 27.8824C242.649 27.9957 242.485 28.2275 242.33 28.5778L239.069 37.386C239.008 37.5714 238.977 37.7259 238.977 37.8496C238.977 37.9732 239.028 38.0659 239.131 38.1277C239.234 38.1895 239.404 38.2204 239.641 38.2204V38.375H236.628L236.643 38.2204C236.983 38.1998 237.251 38.1071 237.447 37.9423C237.643 37.7775 237.813 37.5199 237.957 37.1696L239.456 33.1519H235.948L234.387 37.386C234.325 37.5714 234.295 37.7259 234.295 37.8496C234.295 37.9732 234.346 38.0659 234.449 38.1277C234.552 38.1895 234.722 38.2204 234.959 38.2204V38.375H231.946L231.961 38.2204C232.301 38.1998 232.569 38.1071 232.765 37.9423C232.96 37.7775 233.13 37.5199 233.275 37.1696L236.35 28.8868C236.473 28.5263 236.535 28.2687 236.535 28.1142C236.535 27.9596 236.484 27.8566 236.381 27.8051C236.278 27.7433 236.108 27.7124 235.871 27.7124L235.902 27.5579H238.961L238.9 27.7124C238.57 27.7124 238.317 27.7691 238.142 27.8824C237.967 27.9957 237.802 28.2275 237.648 28.5778L236.056 32.8428H239.564L241.032 28.8868C241.156 28.5263 241.217 28.2687 241.217 28.1142C241.217 27.9596 241.166 27.8566 241.063 27.8051C240.96 27.7433 240.79 27.7124 240.553 27.7124L240.584 27.5579H243.644L243.582 27.7124Z" fill="#467A00"/>
<path d="M249.734 30.8648H249.595L249.673 30.5557C249.734 30.2879 249.791 30.02 249.843 29.7522C249.894 29.4843 249.92 29.2577 249.92 29.0723C249.92 28.6911 249.812 28.3975 249.595 28.1914C249.389 27.9854 249.034 27.8772 248.529 27.8669H246.829L246.366 29.1032L244.975 32.8428H246.69C247.205 32.8428 247.586 32.7295 247.834 32.5028C248.091 32.2762 248.292 31.9568 248.436 31.5447H248.606L248.081 32.9973L247.571 34.5117L247.432 34.4963C247.514 34.1975 247.555 33.9657 247.555 33.8009C247.555 33.5742 247.478 33.4094 247.324 33.3064C247.169 33.2034 246.906 33.1519 246.536 33.1519H244.867L243.507 36.8297L243.043 38.0659H244.928C245.578 38.0659 246.118 37.9268 246.551 37.6487C246.984 37.3705 247.324 37.0409 247.571 36.6597C247.818 36.2785 248.117 35.748 248.467 35.068H248.622L247.2 38.375H240.864L240.911 38.2204C241.23 38.2204 241.472 38.1689 241.637 38.0659C241.802 37.9526 241.962 37.7259 242.116 37.386L245.268 28.8714C245.402 28.4902 245.469 28.2275 245.469 28.0833C245.469 27.939 245.418 27.8412 245.315 27.7897C245.212 27.7382 245.042 27.7124 244.805 27.7124L244.851 27.5579H250.801L249.734 30.8648Z" fill="#467A00"/>
<path d="M257.204 30.8648H257.065L257.143 30.5557C257.204 30.2879 257.261 30.02 257.312 29.7522C257.364 29.4843 257.39 29.2577 257.39 29.0723C257.39 28.6911 257.282 28.3975 257.065 28.1914C256.859 27.9854 256.504 27.8772 255.999 27.8669H254.299L253.836 29.1032L252.445 32.8428H254.16C254.675 32.8428 255.056 32.7295 255.304 32.5028C255.561 32.2762 255.762 31.9568 255.906 31.5447H256.076L255.551 32.9973L255.041 34.5117L254.902 34.4963C254.984 34.1975 255.025 33.9657 255.025 33.8009C255.025 33.5742 254.948 33.4094 254.794 33.3064C254.639 33.2034 254.376 33.1519 254.006 33.1519H252.337L250.977 36.8297L250.513 38.0659H252.398C253.047 38.0659 253.588 37.9268 254.021 37.6487C254.454 37.3705 254.794 37.0409 255.041 36.6597C255.288 36.2785 255.587 35.748 255.937 35.068H256.092L254.67 38.375H248.334L248.381 38.2204C248.7 38.2204 248.942 38.1689 249.107 38.0659C249.272 37.9526 249.431 37.7259 249.586 37.386L252.738 28.8714C252.872 28.4902 252.939 28.2275 252.939 28.0833C252.939 27.939 252.888 27.8412 252.785 27.7897C252.682 27.7382 252.512 27.7124 252.275 27.7124L252.321 27.5579H258.271L257.204 30.8648Z" fill="#467A00"/>
<path d="M181.413 35.4389C181.3 35.8201 181.243 36.1909 181.243 36.5515C181.243 37.149 181.413 37.6023 181.753 37.9114C182.093 38.2204 182.52 38.375 183.036 38.375C183.448 38.375 183.844 38.2771 184.225 38.0814C184.617 37.8753 184.921 37.5972 185.137 37.2469C185.364 36.8863 185.451 36.4794 185.4 36.0261C185.348 35.614 185.214 35.2174 184.998 34.8362C184.782 34.4448 184.478 33.976 184.086 33.43C183.643 32.8016 183.309 32.271 183.082 31.8383C182.866 31.4057 182.757 30.9524 182.757 30.4785C182.757 30.4064 182.768 30.2879 182.788 30.1231C182.86 29.5565 183.072 29.062 183.422 28.6396C183.772 28.2069 184.21 27.8772 184.735 27.6506C185.261 27.4136 185.817 27.2952 186.404 27.2952C186.61 27.2952 186.822 27.3106 187.038 27.3415C187.46 27.4033 187.821 27.5373 188.12 27.7433C188.429 27.939 188.66 28.1657 188.815 28.4232L187.903 30.8185H187.733C187.919 30.1282 188.011 29.5719 188.011 29.1495C188.011 28.2945 187.661 27.7794 186.961 27.6042C186.806 27.563 186.631 27.5424 186.435 27.5424C186.033 27.5424 185.642 27.6454 185.261 27.8515C184.89 28.0472 184.586 28.3254 184.349 28.6859C184.112 29.0362 183.994 29.4431 183.994 29.9067C183.994 30.3291 184.097 30.7412 184.303 31.143C184.509 31.5344 184.828 32.0392 185.261 32.6574C185.704 33.2755 186.033 33.806 186.25 34.249C186.476 34.692 186.59 35.1453 186.59 35.6089C186.59 36.1034 186.435 36.5876 186.126 37.0615C185.817 37.5251 185.39 37.9011 184.844 38.1895C184.298 38.478 183.695 38.6222 183.036 38.6222C182.84 38.6222 182.696 38.6171 182.603 38.6068C182.129 38.5656 181.717 38.4368 181.367 38.2204C181.027 37.9938 180.769 37.7362 180.594 37.4478L181.258 35.4389H181.413Z" stroke="white" stroke-width="6" stroke-linejoin="round" mask="url(#path-2-outside-1_139_30)"/>
<path d="M198.445 27.7124C198.115 27.7124 197.863 27.7691 197.688 27.8824C197.513 27.9957 197.348 28.2275 197.193 28.5778L193.933 37.386C193.871 37.5714 193.84 37.7259 193.84 37.8496C193.84 37.9732 193.892 38.0659 193.995 38.1277C194.098 38.1895 194.268 38.2204 194.505 38.2204V38.375H191.491L191.507 38.2204C191.847 38.1998 192.115 38.1071 192.31 37.9423C192.506 37.7775 192.676 37.5199 192.82 37.1696L194.319 33.1519H190.811L189.251 37.386C189.189 37.5714 189.158 37.7259 189.158 37.8496C189.158 37.9732 189.209 38.0659 189.312 38.1277C189.415 38.1895 189.585 38.2204 189.822 38.2204V38.375H186.809L186.824 38.2204C187.164 38.1998 187.432 38.1071 187.628 37.9423C187.824 37.7775 187.994 37.5199 188.138 37.1696L191.213 28.8868C191.337 28.5263 191.399 28.2687 191.399 28.1142C191.399 27.9596 191.347 27.8566 191.244 27.8051C191.141 27.7433 190.971 27.7124 190.734 27.7124L190.765 27.5579H193.825L193.763 27.7124C193.433 27.7124 193.181 27.7691 193.006 27.8824C192.831 27.9957 192.666 28.2275 192.511 28.5778L190.919 32.8428H194.427L195.895 28.8868C196.019 28.5263 196.081 28.2687 196.081 28.1142C196.081 27.9596 196.029 27.8566 195.926 27.8051C195.823 27.7433 195.653 27.7124 195.416 27.7124L195.447 27.5579H198.507L198.445 27.7124Z" stroke="white" stroke-width="6" stroke-linejoin="round" mask="url(#path-2-outside-1_139_30)"/>
<path d="M202.682 27.7124C202.352 27.7124 202.099 27.7691 201.924 27.8824C201.749 27.9957 201.584 28.2275 201.43 28.5778L198.169 37.386C198.107 37.5714 198.077 37.7259 198.077 37.8496C198.077 37.9732 198.128 38.0659 198.231 38.1277C198.334 38.1895 198.504 38.2204 198.741 38.2204V38.375H195.728L195.743 38.2204C196.083 38.1998 196.351 38.1071 196.547 37.9423C196.742 37.7775 196.912 37.5199 197.057 37.1696L200.132 28.8868C200.255 28.5263 200.317 28.2687 200.317 28.1142C200.317 27.9596 200.266 27.8566 200.163 27.8051C200.06 27.7433 199.89 27.7124 199.653 27.7124L199.684 27.5579H202.743L202.682 27.7124Z" stroke="white" stroke-width="6" stroke-linejoin="round" mask="url(#path-2-outside-1_139_30)"/>
<path d="M211.645 27.5579L211.629 27.7124C211.248 27.7124 210.949 27.8206 210.733 28.0369C210.527 28.2429 210.321 28.6344 210.115 29.2113L207.009 38.4059H206.669L206.715 38.2513L206.669 38.3904L204.846 28.5623L204.722 28.9023L202.095 36.737C201.951 37.1902 201.879 37.5148 201.879 37.7105C201.879 37.8959 201.935 38.0299 202.049 38.1123C202.162 38.1844 202.347 38.2204 202.605 38.2204V38.375H200.21L200.225 38.2204C200.596 38.2204 200.884 38.1277 201.09 37.9423C201.297 37.7465 201.497 37.3911 201.693 36.876L204.305 29.1032C204.315 29.0723 204.325 29.0465 204.336 29.0259C204.346 28.995 204.356 28.9692 204.367 28.9486L204.459 28.6396C204.531 28.4232 204.567 28.243 204.567 28.0987C204.567 27.9442 204.516 27.8412 204.413 27.7897C204.32 27.7382 204.155 27.7124 203.918 27.7124L203.98 27.5579H205.85L207.442 36.0879L209.806 29.0414C209.919 28.6705 209.976 28.3975 209.976 28.2223C209.976 28.0369 209.919 27.9081 209.806 27.836C209.693 27.7536 209.507 27.7124 209.25 27.7124V27.5579H211.645Z" stroke="white" stroke-width="6" stroke-linejoin="round" mask="url(#path-2-outside-1_139_30)"/>
<path d="M221.69 27.7124C221.422 27.7124 221.211 27.7485 221.056 27.8206C220.902 27.8824 220.758 28.0112 220.624 28.2069C220.5 28.4026 220.366 28.7014 220.222 29.1032L217.997 35.068C217.585 36.16 217.028 36.9894 216.328 37.556C215.627 38.1226 214.901 38.4059 214.149 38.4059C213.593 38.4059 213.165 38.2616 212.866 37.9732C212.568 37.6744 212.418 37.283 212.418 36.7988C212.418 36.4485 212.511 36.1394 212.696 35.8716C212.882 35.6037 213.103 35.4698 213.361 35.4698C213.453 35.4698 213.536 35.4853 213.608 35.5162C213.824 35.5986 213.933 35.7583 213.933 35.9952C213.933 36.2012 213.85 36.4279 213.685 36.6751C213.469 36.9945 213.361 37.283 213.361 37.5405C213.361 37.7362 213.433 37.8856 213.577 37.9886C213.711 38.0917 213.907 38.1432 214.164 38.1432C214.545 38.1432 214.885 38.0299 215.184 37.8032C215.493 37.5663 215.787 37.2005 216.065 36.706C216.353 36.2012 216.657 35.5213 216.977 34.6662L219.248 28.5623C219.3 28.3563 219.326 28.2017 219.326 28.0987C219.326 27.9442 219.274 27.8412 219.171 27.7897C219.068 27.7382 218.898 27.7124 218.661 27.7124L218.692 27.5579H221.752L221.69 27.7124Z" stroke="white" stroke-width="6" stroke-linejoin="round" mask="url(#path-2-outside-1_139_30)"/>
<path d="M225.77 27.7124C225.441 27.7124 225.188 27.7691 225.013 27.8824C224.838 27.9957 224.673 28.2275 224.519 28.5778L221.258 37.386C221.196 37.5714 221.165 37.7259 221.165 37.8496C221.165 37.9732 221.217 38.0659 221.32 38.1277C221.423 38.1895 221.593 38.2204 221.83 38.2204V38.375H218.817L218.832 38.2204C219.172 38.1998 219.44 38.1071 219.636 37.9423C219.831 37.7775 220.001 37.5199 220.146 37.1696L223.221 28.8868C223.344 28.5263 223.406 28.2687 223.406 28.1142C223.406 27.9596 223.355 27.8566 223.252 27.8051C223.149 27.7433 222.979 27.7124 222.742 27.7124L222.773 27.5579H225.832L225.77 27.7124Z" stroke="white" stroke-width="6" stroke-linejoin="round" mask="url(#path-2-outside-1_139_30)"/>
<path d="M234.734 27.5579L234.718 27.7124C234.337 27.7124 234.038 27.8206 233.822 28.0369C233.616 28.2429 233.41 28.6344 233.204 29.2113L230.098 38.4059H229.758L229.804 38.2513L229.758 38.3904L227.935 28.5623L227.811 28.9023L225.184 36.737C225.04 37.1902 224.968 37.5148 224.968 37.7105C224.968 37.8959 225.024 38.0299 225.138 38.1123C225.251 38.1844 225.436 38.2204 225.694 38.2204V38.375H223.299L223.314 38.2204C223.685 38.2204 223.973 38.1277 224.179 37.9423C224.385 37.7465 224.586 37.3911 224.782 36.876L227.394 29.1032C227.404 29.0723 227.414 29.0465 227.425 29.0259C227.435 28.995 227.445 28.9692 227.455 28.9486L227.548 28.6396C227.62 28.4232 227.656 28.243 227.656 28.0987C227.656 27.9442 227.605 27.8412 227.502 27.7897C227.409 27.7382 227.244 27.7124 227.007 27.7124L227.069 27.5579H228.939L230.531 36.0879L232.895 29.0414C233.008 28.6705 233.065 28.3975 233.065 28.2223C233.065 28.0369 233.008 27.9081 232.895 27.836C232.782 27.7536 232.596 27.7124 232.339 27.7124V27.5579H234.734Z" stroke="white" stroke-width="6" stroke-linejoin="round" mask="url(#path-2-outside-1_139_30)"/>
<path d="M243.582 27.7124C243.252 27.7124 243 27.7691 242.825 27.8824C242.649 27.9957 242.485 28.2275 242.33 28.5778L239.069 37.386C239.008 37.5714 238.977 37.7259 238.977 37.8496C238.977 37.9732 239.028 38.0659 239.131 38.1277C239.234 38.1895 239.404 38.2204 239.641 38.2204V38.375H236.628L236.643 38.2204C236.983 38.1998 237.251 38.1071 237.447 37.9423C237.643 37.7775 237.813 37.5199 237.957 37.1696L239.456 33.1519H235.948L234.387 37.386C234.325 37.5714 234.295 37.7259 234.295 37.8496C234.295 37.9732 234.346 38.0659 234.449 38.1277C234.552 38.1895 234.722 38.2204 234.959 38.2204V38.375H231.946L231.961 38.2204C232.301 38.1998 232.569 38.1071 232.765 37.9423C232.96 37.7775 233.13 37.5199 233.275 37.1696L236.35 28.8868C236.473 28.5263 236.535 28.2687 236.535 28.1142C236.535 27.9596 236.484 27.8566 236.381 27.8051C236.278 27.7433 236.108 27.7124 235.871 27.7124L235.902 27.5579H238.961L238.9 27.7124C238.57 27.7124 238.317 27.7691 238.142 27.8824C237.967 27.9957 237.802 28.2275 237.648 28.5778L236.056 32.8428H239.564L241.032 28.8868C241.156 28.5263 241.217 28.2687 241.217 28.1142C241.217 27.9596 241.166 27.8566 241.063 27.8051C240.96 27.7433 240.79 27.7124 240.553 27.7124L240.584 27.5579H243.644L243.582 27.7124Z" stroke="white" stroke-width="6" stroke-linejoin="round" mask="url(#path-2-outside-1_139_30)"/>
<path d="M249.734 30.8648H249.595L249.673 30.5557C249.734 30.2879 249.791 30.02 249.843 29.7522C249.894 29.4843 249.92 29.2577 249.92 29.0723C249.92 28.6911 249.812 28.3975 249.595 28.1914C249.389 27.9854 249.034 27.8772 248.529 27.8669H246.829L246.366 29.1032L244.975 32.8428H246.69C247.205 32.8428 247.586 32.7295 247.834 32.5028C248.091 32.2762 248.292 31.9568 248.436 31.5447H248.606L248.081 32.9973L247.571 34.5117L247.432 34.4963C247.514 34.1975 247.555 33.9657 247.555 33.8009C247.555 33.5742 247.478 33.4094 247.324 33.3064C247.169 33.2034 246.906 33.1519 246.536 33.1519H244.867L243.507 36.8297L243.043 38.0659H244.928C245.578 38.0659 246.118 37.9268 246.551 37.6487C246.984 37.3705 247.324 37.0409 247.571 36.6597C247.818 36.2785 248.117 35.748 248.467 35.068H248.622L247.2 38.375H240.864L240.911 38.2204C241.23 38.2204 241.472 38.1689 241.637 38.0659C241.802 37.9526 241.962 37.7259 242.116 37.386L245.268 28.8714C245.402 28.4902 245.469 28.2275 245.469 28.0833C245.469 27.939 245.418 27.8412 245.315 27.7897C245.212 27.7382 245.042 27.7124 244.805 27.7124L244.851 27.5579H250.801L249.734 30.8648Z" stroke="white" stroke-width="6" stroke-linejoin="round" mask="url(#path-2-outside-1_139_30)"/>
<path d="M257.204 30.8648H257.065L257.143 30.5557C257.204 30.2879 257.261 30.02 257.312 29.7522C257.364 29.4843 257.39 29.2577 257.39 29.0723C257.39 28.6911 257.282 28.3975 257.065 28.1914C256.859 27.9854 256.504 27.8772 255.999 27.8669H254.299L253.836 29.1032L252.445 32.8428H254.16C254.675 32.8428 255.056 32.7295 255.304 32.5028C255.561 32.2762 255.762 31.9568 255.906 31.5447H256.076L255.551 32.9973L255.041 34.5117L254.902 34.4963C254.984 34.1975 255.025 33.9657 255.025 33.8009C255.025 33.5742 254.948 33.4094 254.794 33.3064C254.639 33.2034 254.376 33.1519 254.006 33.1519H252.337L250.977 36.8297L250.513 38.0659H252.398C253.047 38.0659 253.588 37.9268 254.021 37.6487C254.454 37.3705 254.794 37.0409 255.041 36.6597C255.288 36.2785 255.587 35.748 255.937 35.068H256.092L254.67 38.375H248.334L248.381 38.2204C248.7 38.2204 248.942 38.1689 249.107 38.0659C249.272 37.9526 249.431 37.7259 249.586 37.386L252.738 28.8714C252.872 28.4902 252.939 28.2275 252.939 28.0833C252.939 27.939 252.888 27.8412 252.785 27.7897C252.682 27.7382 252.512 27.7124 252.275 27.7124L252.321 27.5579H258.271L257.204 30.8648Z" stroke="white" stroke-width="6" stroke-linejoin="round" mask="url(#path-2-outside-1_139_30)"/>
<mask id="path-3-outside-2_139_30" maskUnits="userSpaceOnUse" x="179.594" y="26.2952" width="79" height="13" fill="black">
<rect fill="white" x="179.594" y="26.2952" width="79" height="13"/>
<path d="M181.413 35.4389C181.3 35.8201 181.243 36.1909 181.243 36.5515C181.243 37.149 181.413 37.6023 181.753 37.9114C182.093 38.2204 182.52 38.375 183.036 38.375C183.448 38.375 183.844 38.2771 184.225 38.0814C184.617 37.8753 184.921 37.5972 185.137 37.2469C185.364 36.8863 185.451 36.4794 185.4 36.0261C185.348 35.614 185.214 35.2174 184.998 34.8362C184.782 34.4448 184.478 33.976 184.086 33.43C183.643 32.8016 183.309 32.271 183.082 31.8383C182.866 31.4057 182.757 30.9524 182.757 30.4785C182.757 30.4064 182.768 30.2879 182.788 30.1231C182.86 29.5565 183.072 29.062 183.422 28.6396C183.772 28.2069 184.21 27.8772 184.735 27.6506C185.261 27.4136 185.817 27.2952 186.404 27.2952C186.61 27.2952 186.822 27.3106 187.038 27.3415C187.46 27.4033 187.821 27.5373 188.12 27.7433C188.429 27.939 188.66 28.1657 188.815 28.4232L187.903 30.8185H187.733C187.919 30.1282 188.011 29.5719 188.011 29.1495C188.011 28.2945 187.661 27.7794 186.961 27.6042C186.806 27.563 186.631 27.5424 186.435 27.5424C186.033 27.5424 185.642 27.6454 185.261 27.8515C184.89 28.0472 184.586 28.3254 184.349 28.6859C184.112 29.0362 183.994 29.4431 183.994 29.9067C183.994 30.3291 184.097 30.7412 184.303 31.143C184.509 31.5344 184.828 32.0392 185.261 32.6574C185.704 33.2755 186.033 33.806 186.25 34.249C186.476 34.692 186.59 35.1453 186.59 35.6089C186.59 36.1034 186.435 36.5876 186.126 37.0615C185.817 37.5251 185.39 37.9011 184.844 38.1895C184.298 38.478 183.695 38.6222 183.036 38.6222C182.84 38.6222 182.696 38.6171 182.603 38.6068C182.129 38.5656 181.717 38.4368 181.367 38.2204C181.027 37.9938 180.769 37.7362 180.594 37.4478L181.258 35.4389H181.413Z"/>
<path d="M198.445 27.7124C198.115 27.7124 197.863 27.7691 197.688 27.8824C197.513 27.9957 197.348 28.2275 197.193 28.5778L193.933 37.386C193.871 37.5714 193.84 37.7259 193.84 37.8496C193.84 37.9732 193.892 38.0659 193.995 38.1277C194.098 38.1895 194.268 38.2204 194.505 38.2204V38.375H191.491L191.507 38.2204C191.847 38.1998 192.115 38.1071 192.31 37.9423C192.506 37.7775 192.676 37.5199 192.82 37.1696L194.319 33.1519H190.811L189.251 37.386C189.189 37.5714 189.158 37.7259 189.158 37.8496C189.158 37.9732 189.209 38.0659 189.312 38.1277C189.415 38.1895 189.585 38.2204 189.822 38.2204V38.375H186.809L186.824 38.2204C187.164 38.1998 187.432 38.1071 187.628 37.9423C187.824 37.7775 187.994 37.5199 188.138 37.1696L191.213 28.8868C191.337 28.5263 191.399 28.2687 191.399 28.1142C191.399 27.9596 191.347 27.8566 191.244 27.8051C191.141 27.7433 190.971 27.7124 190.734 27.7124L190.765 27.5579H193.825L193.763 27.7124C193.433 27.7124 193.181 27.7691 193.006 27.8824C192.831 27.9957 192.666 28.2275 192.511 28.5778L190.919 32.8428H194.427L195.895 28.8868C196.019 28.5263 196.081 28.2687 196.081 28.1142C196.081 27.9596 196.029 27.8566 195.926 27.8051C195.823 27.7433 195.653 27.7124 195.416 27.7124L195.447 27.5579H198.507L198.445 27.7124Z"/>
<path d="M202.682 27.7124C202.352 27.7124 202.099 27.7691 201.924 27.8824C201.749 27.9957 201.584 28.2275 201.43 28.5778L198.169 37.386C198.107 37.5714 198.077 37.7259 198.077 37.8496C198.077 37.9732 198.128 38.0659 198.231 38.1277C198.334 38.1895 198.504 38.2204 198.741 38.2204V38.375H195.728L195.743 38.2204C196.083 38.1998 196.351 38.1071 196.547 37.9423C196.742 37.7775 196.912 37.5199 197.057 37.1696L200.132 28.8868C200.255 28.5263 200.317 28.2687 200.317 28.1142C200.317 27.9596 200.266 27.8566 200.163 27.8051C200.06 27.7433 199.89 27.7124 199.653 27.7124L199.684 27.5579H202.743L202.682 27.7124Z"/>
<path d="M211.645 27.5579L211.629 27.7124C211.248 27.7124 210.949 27.8206 210.733 28.0369C210.527 28.2429 210.321 28.6344 210.115 29.2113L207.009 38.4059H206.669L206.715 38.2513L206.669 38.3904L204.846 28.5623L204.722 28.9023L202.095 36.737C201.951 37.1902 201.879 37.5148 201.879 37.7105C201.879 37.8959 201.935 38.0299 202.049 38.1123C202.162 38.1844 202.347 38.2204 202.605 38.2204V38.375H200.21L200.225 38.2204C200.596 38.2204 200.884 38.1277 201.09 37.9423C201.297 37.7465 201.497 37.3911 201.693 36.876L204.305 29.1032C204.315 29.0723 204.325 29.0465 204.336 29.0259C204.346 28.995 204.356 28.9692 204.367 28.9486L204.459 28.6396C204.531 28.4232 204.567 28.243 204.567 28.0987C204.567 27.9442 204.516 27.8412 204.413 27.7897C204.32 27.7382 204.155 27.7124 203.918 27.7124L203.98 27.5579H205.85L207.442 36.0879L209.806 29.0414C209.919 28.6705 209.976 28.3975 209.976 28.2223C209.976 28.0369 209.919 27.9081 209.806 27.836C209.693 27.7536 209.507 27.7124 209.25 27.7124V27.5579H211.645Z"/>
<path d="M221.69 27.7124C221.422 27.7124 221.211 27.7485 221.056 27.8206C220.902 27.8824 220.758 28.0112 220.624 28.2069C220.5 28.4026 220.366 28.7014 220.222 29.1032L217.997 35.068C217.585 36.16 217.028 36.9894 216.328 37.556C215.627 38.1226 214.901 38.4059 214.149 38.4059C213.593 38.4059 213.165 38.2616 212.866 37.9732C212.568 37.6744 212.418 37.283 212.418 36.7988C212.418 36.4485 212.511 36.1394 212.696 35.8716C212.882 35.6037 213.103 35.4698 213.361 35.4698C213.453 35.4698 213.536 35.4853 213.608 35.5162C213.824 35.5986 213.933 35.7583 213.933 35.9952C213.933 36.2012 213.85 36.4279 213.685 36.6751C213.469 36.9945 213.361 37.283 213.361 37.5405C213.361 37.7362 213.433 37.8856 213.577 37.9886C213.711 38.0917 213.907 38.1432 214.164 38.1432C214.545 38.1432 214.885 38.0299 215.184 37.8032C215.493 37.5663 215.787 37.2005 216.065 36.706C216.353 36.2012 216.657 35.5213 216.977 34.6662L219.248 28.5623C219.3 28.3563 219.326 28.2017 219.326 28.0987C219.326 27.9442 219.274 27.8412 219.171 27.7897C219.068 27.7382 218.898 27.7124 218.661 27.7124L218.692 27.5579H221.752L221.69 27.7124Z"/>
<path d="M225.77 27.7124C225.441 27.7124 225.188 27.7691 225.013 27.8824C224.838 27.9957 224.673 28.2275 224.519 28.5778L221.258 37.386C221.196 37.5714 221.165 37.7259 221.165 37.8496C221.165 37.9732 221.217 38.0659 221.32 38.1277C221.423 38.1895 221.593 38.2204 221.83 38.2204V38.375H218.817L218.832 38.2204C219.172 38.1998 219.44 38.1071 219.636 37.9423C219.831 37.7775 220.001 37.5199 220.146 37.1696L223.221 28.8868C223.344 28.5263 223.406 28.2687 223.406 28.1142C223.406 27.9596 223.355 27.8566 223.252 27.8051C223.149 27.7433 222.979 27.7124 222.742 27.7124L222.773 27.5579H225.832L225.77 27.7124Z"/>
<path d="M234.734 27.5579L234.718 27.7124C234.337 27.7124 234.038 27.8206 233.822 28.0369C233.616 28.2429 233.41 28.6344 233.204 29.2113L230.098 38.4059H229.758L229.804 38.2513L229.758 38.3904L227.935 28.5623L227.811 28.9023L225.184 36.737C225.04 37.1902 224.968 37.5148 224.968 37.7105C224.968 37.8959 225.024 38.0299 225.138 38.1123C225.251 38.1844 225.436 38.2204 225.694 38.2204V38.375H223.299L223.314 38.2204C223.685 38.2204 223.973 38.1277 224.179 37.9423C224.385 37.7465 224.586 37.3911 224.782 36.876L227.394 29.1032C227.404 29.0723 227.414 29.0465 227.425 29.0259C227.435 28.995 227.445 28.9692 227.455 28.9486L227.548 28.6396C227.62 28.4232 227.656 28.243 227.656 28.0987C227.656 27.9442 227.605 27.8412 227.502 27.7897C227.409 27.7382 227.244 27.7124 227.007 27.7124L227.069 27.5579H228.939L230.531 36.0879L232.895 29.0414C233.008 28.6705 233.065 28.3975 233.065 28.2223C233.065 28.0369 233.008 27.9081 232.895 27.836C232.782 27.7536 232.596 27.7124 232.339 27.7124V27.5579H234.734Z"/>
<path d="M243.582 27.7124C243.252 27.7124 243 27.7691 242.825 27.8824C242.649 27.9957 242.485 28.2275 242.33 28.5778L239.069 37.386C239.008 37.5714 238.977 37.7259 238.977 37.8496C238.977 37.9732 239.028 38.0659 239.131 38.1277C239.234 38.1895 239.404 38.2204 239.641 38.2204V38.375H236.628L236.643 38.2204C236.983 38.1998 237.251 38.1071 237.447 37.9423C237.643 37.7775 237.813 37.5199 237.957 37.1696L239.456 33.1519H235.948L234.387 37.386C234.325 37.5714 234.295 37.7259 234.295 37.8496C234.295 37.9732 234.346 38.0659 234.449 38.1277C234.552 38.1895 234.722 38.2204 234.959 38.2204V38.375H231.946L231.961 38.2204C232.301 38.1998 232.569 38.1071 232.765 37.9423C232.96 37.7775 233.13 37.5199 233.275 37.1696L236.35 28.8868C236.473 28.5263 236.535 28.2687 236.535 28.1142C236.535 27.9596 236.484 27.8566 236.381 27.8051C236.278 27.7433 236.108 27.7124 235.871 27.7124L235.902 27.5579H238.961L238.9 27.7124C238.57 27.7124 238.317 27.7691 238.142 27.8824C237.967 27.9957 237.802 28.2275 237.648 28.5778L236.056 32.8428H239.564L241.032 28.8868C241.156 28.5263 241.217 28.2687 241.217 28.1142C241.217 27.9596 241.166 27.8566 241.063 27.8051C240.96 27.7433 240.79 27.7124 240.553 27.7124L240.584 27.5579H243.644L243.582 27.7124Z"/>
<path d="M249.734 30.8648H249.595L249.673 30.5557C249.734 30.2879 249.791 30.02 249.843 29.7522C249.894 29.4843 249.92 29.2577 249.92 29.0723C249.92 28.6911 249.812 28.3975 249.595 28.1914C249.389 27.9854 249.034 27.8772 248.529 27.8669H246.829L246.366 29.1032L244.975 32.8428H246.69C247.205 32.8428 247.586 32.7295 247.834 32.5028C248.091 32.2762 248.292 31.9568 248.436 31.5447H248.606L248.081 32.9973L247.571 34.5117L247.432 34.4963C247.514 34.1975 247.555 33.9657 247.555 33.8009C247.555 33.5742 247.478 33.4094 247.324 33.3064C247.169 33.2034 246.906 33.1519 246.536 33.1519H244.867L243.507 36.8297L243.043 38.0659H244.928C245.578 38.0659 246.118 37.9268 246.551 37.6487C246.984 37.3705 247.324 37.0409 247.571 36.6597C247.818 36.2785 248.117 35.748 248.467 35.068H248.622L247.2 38.375H240.864L240.911 38.2204C241.23 38.2204 241.472 38.1689 241.637 38.0659C241.802 37.9526 241.962 37.7259 242.116 37.386L245.268 28.8714C245.402 28.4902 245.469 28.2275 245.469 28.0833C245.469 27.939 245.418 27.8412 245.315 27.7897C245.212 27.7382 245.042 27.7124 244.805 27.7124L244.851 27.5579H250.801L249.734 30.8648Z"/>
<path d="M257.204 30.8648H257.065L257.143 30.5557C257.204 30.2879 257.261 30.02 257.312 29.7522C257.364 29.4843 257.39 29.2577 257.39 29.0723C257.39 28.6911 257.282 28.3975 257.065 28.1914C256.859 27.9854 256.504 27.8772 255.999 27.8669H254.299L253.836 29.1032L252.445 32.8428H254.16C254.675 32.8428 255.056 32.7295 255.304 32.5028C255.561 32.2762 255.762 31.9568 255.906 31.5447H256.076L255.551 32.9973L255.041 34.5117L254.902 34.4963C254.984 34.1975 255.025 33.9657 255.025 33.8009C255.025 33.5742 254.948 33.4094 254.794 33.3064C254.639 33.2034 254.376 33.1519 254.006 33.1519H252.337L250.977 36.8297L250.513 38.0659H252.398C253.047 38.0659 253.588 37.9268 254.021 37.6487C254.454 37.3705 254.794 37.0409 255.041 36.6597C255.288 36.2785 255.587 35.748 255.937 35.068H256.092L254.67 38.375H248.334L248.381 38.2204C248.7 38.2204 248.942 38.1689 249.107 38.0659C249.272 37.9526 249.431 37.7259 249.586 37.386L252.738 28.8714C252.872 28.4902 252.939 28.2275 252.939 28.0833C252.939 27.939 252.888 27.8412 252.785 27.7897C252.682 27.7382 252.512 27.7124 252.275 27.7124L252.321 27.5579H258.271L257.204 30.8648Z"/>
</mask>
<path d="M181.413 35.4389C181.3 35.8201 181.243 36.1909 181.243 36.5515C181.243 37.149 181.413 37.6023 181.753 37.9114C182.093 38.2204 182.52 38.375 183.036 38.375C183.448 38.375 183.844 38.2771 184.225 38.0814C184.617 37.8753 184.921 37.5972 185.137 37.2469C185.364 36.8863 185.451 36.4794 185.4 36.0261C185.348 35.614 185.214 35.2174 184.998 34.8362C184.782 34.4448 184.478 33.976 184.086 33.43C183.643 32.8016 183.309 32.271 183.082 31.8383C182.866 31.4057 182.757 30.9524 182.757 30.4785C182.757 30.4064 182.768 30.2879 182.788 30.1231C182.86 29.5565 183.072 29.062 183.422 28.6396C183.772 28.2069 184.21 27.8772 184.735 27.6506C185.261 27.4136 185.817 27.2952 186.404 27.2952C186.61 27.2952 186.822 27.3106 187.038 27.3415C187.46 27.4033 187.821 27.5373 188.12 27.7433C188.429 27.939 188.66 28.1657 188.815 28.4232L187.903 30.8185H187.733C187.919 30.1282 188.011 29.5719 188.011 29.1495C188.011 28.2945 187.661 27.7794 186.961 27.6042C186.806 27.563 186.631 27.5424 186.435 27.5424C186.033 27.5424 185.642 27.6454 185.261 27.8515C184.89 28.0472 184.586 28.3254 184.349 28.6859C184.112 29.0362 183.994 29.4431 183.994 29.9067C183.994 30.3291 184.097 30.7412 184.303 31.143C184.509 31.5344 184.828 32.0392 185.261 32.6574C185.704 33.2755 186.033 33.806 186.25 34.249C186.476 34.692 186.59 35.1453 186.59 35.6089C186.59 36.1034 186.435 36.5876 186.126 37.0615C185.817 37.5251 185.39 37.9011 184.844 38.1895C184.298 38.478 183.695 38.6222 183.036 38.6222C182.84 38.6222 182.696 38.6171 182.603 38.6068C182.129 38.5656 181.717 38.4368 181.367 38.2204C181.027 37.9938 180.769 37.7362 180.594 37.4478L181.258 35.4389H181.413Z" fill="#467A00"/>
<path d="M198.445 27.7124C198.115 27.7124 197.863 27.7691 197.688 27.8824C197.513 27.9957 197.348 28.2275 197.193 28.5778L193.933 37.386C193.871 37.5714 193.84 37.7259 193.84 37.8496C193.84 37.9732 193.892 38.0659 193.995 38.1277C194.098 38.1895 194.268 38.2204 194.505 38.2204V38.375H191.491L191.507 38.2204C191.847 38.1998 192.115 38.1071 192.31 37.9423C192.506 37.7775 192.676 37.5199 192.82 37.1696L194.319 33.1519H190.811L189.251 37.386C189.189 37.5714 189.158 37.7259 189.158 37.8496C189.158 37.9732 189.209 38.0659 189.312 38.1277C189.415 38.1895 189.585 38.2204 189.822 38.2204V38.375H186.809L186.824 38.2204C187.164 38.1998 187.432 38.1071 187.628 37.9423C187.824 37.7775 187.994 37.5199 188.138 37.1696L191.213 28.8868C191.337 28.5263 191.399 28.2687 191.399 28.1142C191.399 27.9596 191.347 27.8566 191.244 27.8051C191.141 27.7433 190.971 27.7124 190.734 27.7124L190.765 27.5579H193.825L193.763 27.7124C193.433 27.7124 193.181 27.7691 193.006 27.8824C192.831 27.9957 192.666 28.2275 192.511 28.5778L190.919 32.8428H194.427L195.895 28.8868C196.019 28.5263 196.081 28.2687 196.081 28.1142C196.081 27.9596 196.029 27.8566 195.926 27.8051C195.823 27.7433 195.653 27.7124 195.416 27.7124L195.447 27.5579H198.507L198.445 27.7124Z" fill="#467A00"/>
<path d="M202.682 27.7124C202.352 27.7124 202.099 27.7691 201.924 27.8824C201.749 27.9957 201.584 28.2275 201.43 28.5778L198.169 37.386C198.107 37.5714 198.077 37.7259 198.077 37.8496C198.077 37.9732 198.128 38.0659 198.231 38.1277C198.334 38.1895 198.504 38.2204 198.741 38.2204V38.375H195.728L195.743 38.2204C196.083 38.1998 196.351 38.1071 196.547 37.9423C196.742 37.7775 196.912 37.5199 197.057 37.1696L200.132 28.8868C200.255 28.5263 200.317 28.2687 200.317 28.1142C200.317 27.9596 200.266 27.8566 200.163 27.8051C200.06 27.7433 199.89 27.7124 199.653 27.7124L199.684 27.5579H202.743L202.682 27.7124Z" fill="#467A00"/>
<path d="M211.645 27.5579L211.629 27.7124C211.248 27.7124 210.949 27.8206 210.733 28.0369C210.527 28.2429 210.321 28.6344 210.115 29.2113L207.009 38.4059H206.669L206.715 38.2513L206.669 38.3904L204.846 28.5623L204.722 28.9023L202.095 36.737C201.951 37.1902 201.879 37.5148 201.879 37.7105C201.879 37.8959 201.935 38.0299 202.049 38.1123C202.162 38.1844 202.347 38.2204 202.605 38.2204V38.375H200.21L200.225 38.2204C200.596 38.2204 200.884 38.1277 201.09 37.9423C201.297 37.7465 201.497 37.3911 201.693 36.876L204.305 29.1032C204.315 29.0723 204.325 29.0465 204.336 29.0259C204.346 28.995 204.356 28.9692 204.367 28.9486L204.459 28.6396C204.531 28.4232 204.567 28.243 204.567 28.0987C204.567 27.9442 204.516 27.8412 204.413 27.7897C204.32 27.7382 204.155 27.7124 203.918 27.7124L203.98 27.5579H205.85L207.442 36.0879L209.806 29.0414C209.919 28.6705 209.976 28.3975 209.976 28.2223C209.976 28.0369 209.919 27.9081 209.806 27.836C209.693 27.7536 209.507 27.7124 209.25 27.7124V27.5579H211.645Z" fill="#467A00"/>
<path d="M221.69 27.7124C221.422 27.7124 221.211 27.7485 221.056 27.8206C220.902 27.8824 220.758 28.0112 220.624 28.2069C220.5 28.4026 220.366 28.7014 220.222 29.1032L217.997 35.068C217.585 36.16 217.028 36.9894 216.328 37.556C215.627 38.1226 214.901 38.4059 214.149 38.4059C213.593 38.4059 213.165 38.2616 212.866 37.9732C212.568 37.6744 212.418 37.283 212.418 36.7988C212.418 36.4485 212.511 36.1394 212.696 35.8716C212.882 35.6037 213.103 35.4698 213.361 35.4698C213.453 35.4698 213.536 35.4853 213.608 35.5162C213.824 35.5986 213.933 35.7583 213.933 35.9952C213.933 36.2012 213.85 36.4279 213.685 36.6751C213.469 36.9945 213.361 37.283 213.361 37.5405C213.361 37.7362 213.433 37.8856 213.577 37.9886C213.711 38.0917 213.907 38.1432 214.164 38.1432C214.545 38.1432 214.885 38.0299 215.184 37.8032C215.493 37.5663 215.787 37.2005 216.065 36.706C216.353 36.2012 216.657 35.5213 216.977 34.6662L219.248 28.5623C219.3 28.3563 219.326 28.2017 219.326 28.0987C219.326 27.9442 219.274 27.8412 219.171 27.7897C219.068 27.7382 218.898 27.7124 218.661 27.7124L218.692 27.5579H221.752L221.69 27.7124Z" fill="#467A00"/>
<path d="M225.77 27.7124C225.441 27.7124 225.188 27.7691 225.013 27.8824C224.838 27.9957 224.673 28.2275 224.519 28.5778L221.258 37.386C221.196 37.5714 221.165 37.7259 221.165 37.8496C221.165 37.9732 221.217 38.0659 221.32 38.1277C221.423 38.1895 221.593 38.2204 221.83 38.2204V38.375H218.817L218.832 38.2204C219.172 38.1998 219.44 38.1071 219.636 37.9423C219.831 37.7775 220.001 37.5199 220.146 37.1696L223.221 28.8868C223.344 28.5263 223.406 28.2687 223.406 28.1142C223.406 27.9596 223.355 27.8566 223.252 27.8051C223.149 27.7433 222.979 27.7124 222.742 27.7124L222.773 27.5579H225.832L225.77 27.7124Z" fill="#467A00"/>
<path d="M234.734 27.5579L234.718 27.7124C234.337 27.7124 234.038 27.8206 233.822 28.0369C233.616 28.2429 233.41 28.6344 233.204 29.2113L230.098 38.4059H229.758L229.804 38.2513L229.758 38.3904L227.935 28.5623L227.811 28.9023L225.184 36.737C225.04 37.1902 224.968 37.5148 224.968 37.7105C224.968 37.8959 225.024 38.0299 225.138 38.1123C225.251 38.1844 225.436 38.2204 225.694 38.2204V38.375H223.299L223.314 38.2204C223.685 38.2204 223.973 38.1277 224.179 37.9423C224.385 37.7465 224.586 37.3911 224.782 36.876L227.394 29.1032C227.404 29.0723 227.414 29.0465 227.425 29.0259C227.435 28.995 227.445 28.9692 227.455 28.9486L227.548 28.6396C227.62 28.4232 227.656 28.243 227.656 28.0987C227.656 27.9442 227.605 27.8412 227.502 27.7897C227.409 27.7382 227.244 27.7124 227.007 27.7124L227.069 27.5579H228.939L230.531 36.0879L232.895 29.0414C233.008 28.6705 233.065 28.3975 233.065 28.2223C233.065 28.0369 233.008 27.9081 232.895 27.836C232.782 27.7536 232.596 27.7124 232.339 27.7124V27.5579H234.734Z" fill="#467A00"/>
<path d="M243.582 27.7124C243.252 27.7124 243 27.7691 242.825 27.8824C242.649 27.9957 242.485 28.2275 242.33 28.5778L239.069 37.386C239.008 37.5714 238.977 37.7259 238.977 37.8496C238.977 37.9732 239.028 38.0659 239.131 38.1277C239.234 38.1895 239.404 38.2204 239.641 38.2204V38.375H236.628L236.643 38.2204C236.983 38.1998 237.251 38.1071 237.447 37.9423C237.643 37.7775 237.813 37.5199 237.957 37.1696L239.456 33.1519H235.948L234.387 37.386C234.325 37.5714 234.295 37.7259 234.295 37.8496C234.295 37.9732 234.346 38.0659 234.449 38.1277C234.552 38.1895 234.722 38.2204 234.959 38.2204V38.375H231.946L231.961 38.2204C232.301 38.1998 232.569 38.1071 232.765 37.9423C232.96 37.7775 233.13 37.5199 233.275 37.1696L236.35 28.8868C236.473 28.5263 236.535 28.2687 236.535 28.1142C236.535 27.9596 236.484 27.8566 236.381 27.8051C236.278 27.7433 236.108 27.7124 235.871 27.7124L235.902 27.5579H238.961L238.9 27.7124C238.57 27.7124 238.317 27.7691 238.142 27.8824C237.967 27.9957 237.802 28.2275 237.648 28.5778L236.056 32.8428H239.564L241.032 28.8868C241.156 28.5263 241.217 28.2687 241.217 28.1142C241.217 27.9596 241.166 27.8566 241.063 27.8051C240.96 27.7433 240.79 27.7124 240.553 27.7124L240.584 27.5579H243.644L243.582 27.7124Z" fill="#467A00"/>
<path d="M249.734 30.8648H249.595L249.673 30.5557C249.734 30.2879 249.791 30.02 249.843 29.7522C249.894 29.4843 249.92 29.2577 249.92 29.0723C249.92 28.6911 249.812 28.3975 249.595 28.1914C249.389 27.9854 249.034 27.8772 248.529 27.8669H246.829L246.366 29.1032L244.975 32.8428H246.69C247.205 32.8428 247.586 32.7295 247.834 32.5028C248.091 32.2762 248.292 31.9568 248.436 31.5447H248.606L248.081 32.9973L247.571 34.5117L247.432 34.4963C247.514 34.1975 247.555 33.9657 247.555 33.8009C247.555 33.5742 247.478 33.4094 247.324 33.3064C247.169 33.2034 246.906 33.1519 246.536 33.1519H244.867L243.507 36.8297L243.043 38.0659H244.928C245.578 38.0659 246.118 37.9268 246.551 37.6487C246.984 37.3705 247.324 37.0409 247.571 36.6597C247.818 36.2785 248.117 35.748 248.467 35.068H248.622L247.2 38.375H240.864L240.911 38.2204C241.23 38.2204 241.472 38.1689 241.637 38.0659C241.802 37.9526 241.962 37.7259 242.116 37.386L245.268 28.8714C245.402 28.4902 245.469 28.2275 245.469 28.0833C245.469 27.939 245.418 27.8412 245.315 27.7897C245.212 27.7382 245.042 27.7124 244.805 27.7124L244.851 27.5579H250.801L249.734 30.8648Z" fill="#467A00"/>
<path d="M257.204 30.8648H257.065L257.143 30.5557C257.204 30.2879 257.261 30.02 257.312 29.7522C257.364 29.4843 257.39 29.2577 257.39 29.0723C257.39 28.6911 257.282 28.3975 257.065 28.1914C256.859 27.9854 256.504 27.8772 255.999 27.8669H254.299L253.836 29.1032L252.445 32.8428H254.16C254.675 32.8428 255.056 32.7295 255.304 32.5028C255.561 32.2762 255.762 31.9568 255.906 31.5447H256.076L255.551 32.9973L255.041 34.5117L254.902 34.4963C254.984 34.1975 255.025 33.9657 255.025 33.8009C255.025 33.5742 254.948 33.4094 254.794 33.3064C254.639 33.2034 254.376 33.1519 254.006 33.1519H252.337L250.977 36.8297L250.513 38.0659H252.398C253.047 38.0659 253.588 37.9268 254.021 37.6487C254.454 37.3705 254.794 37.0409 255.041 36.6597C255.288 36.2785 255.587 35.748 255.937 35.068H256.092L254.67 38.375H248.334L248.381 38.2204C248.7 38.2204 248.942 38.1689 249.107 38.0659C249.272 37.9526 249.431 37.7259 249.586 37.386L252.738 28.8714C252.872 28.4902 252.939 28.2275 252.939 28.0833C252.939 27.939 252.888 27.8412 252.785 27.7897C252.682 27.7382 252.512 27.7124 252.275 27.7124L252.321 27.5579H258.271L257.204 30.8648Z" fill="#467A00"/>
<path d="M181.413 35.4389C181.3 35.8201 181.243 36.1909 181.243 36.5515C181.243 37.149 181.413 37.6023 181.753 37.9114C182.093 38.2204 182.52 38.375 183.036 38.375C183.448 38.375 183.844 38.2771 184.225 38.0814C184.617 37.8753 184.921 37.5972 185.137 37.2469C185.364 36.8863 185.451 36.4794 185.4 36.0261C185.348 35.614 185.214 35.2174 184.998 34.8362C184.782 34.4448 184.478 33.976 184.086 33.43C183.643 32.8016 183.309 32.271 183.082 31.8383C182.866 31.4057 182.757 30.9524 182.757 30.4785C182.757 30.4064 182.768 30.2879 182.788 30.1231C182.86 29.5565 183.072 29.062 183.422 28.6396C183.772 28.2069 184.21 27.8772 184.735 27.6506C185.261 27.4136 185.817 27.2952 186.404 27.2952C186.61 27.2952 186.822 27.3106 187.038 27.3415C187.46 27.4033 187.821 27.5373 188.12 27.7433C188.429 27.939 188.66 28.1657 188.815 28.4232L187.903 30.8185H187.733C187.919 30.1282 188.011 29.5719 188.011 29.1495C188.011 28.2945 187.661 27.7794 186.961 27.6042C186.806 27.563 186.631 27.5424 186.435 27.5424C186.033 27.5424 185.642 27.6454 185.261 27.8515C184.89 28.0472 184.586 28.3254 184.349 28.6859C184.112 29.0362 183.994 29.4431 183.994 29.9067C183.994 30.3291 184.097 30.7412 184.303 31.143C184.509 31.5344 184.828 32.0392 185.261 32.6574C185.704 33.2755 186.033 33.806 186.25 34.249C186.476 34.692 186.59 35.1453 186.59 35.6089C186.59 36.1034 186.435 36.5876 186.126 37.0615C185.817 37.5251 185.39 37.9011 184.844 38.1895C184.298 38.478 183.695 38.6222 183.036 38.6222C182.84 38.6222 182.696 38.6171 182.603 38.6068C182.129 38.5656 181.717 38.4368 181.367 38.2204C181.027 37.9938 180.769 37.7362 180.594 37.4478L181.258 35.4389H181.413Z" stroke="white" stroke-width="0.6" stroke-linejoin="round" mask="url(#path-3-outside-2_139_30)"/>
<path d="M181.413 35.4389C181.3 35.8201 181.243 36.1909 181.243 36.5515C181.243 37.149 181.413 37.6023 181.753 37.9114C182.093 38.2204 182.52 38.375 183.036 38.375C183.448 38.375 183.844 38.2771 184.225 38.0814C184.617 37.8753 184.921 37.5972 185.137 37.2469C185.364 36.8863 185.451 36.4794 185.4 36.0261C185.348 35.614 185.214 35.2174 184.998 34.8362C184.782 34.4448 184.478 33.976 184.086 33.43C183.643 32.8016 183.309 32.271 183.082 31.8383C182.866 31.4057 182.757 30.9524 182.757 30.4785C182.757 30.4064 182.768 30.2879 182.788 30.1231C182.86 29.5565 183.072 29.062 183.422 28.6396C183.772 28.2069 184.21 27.8772 184.735 27.6506C185.261 27.4136 185.817 27.2952 186.404 27.2952C186.61 27.2952 186.822 27.3106 187.038 27.3415C187.46 27.4033 187.821 27.5373 188.12 27.7433C188.429 27.939 188.66 28.1657 188.815 28.4232L187.903 30.8185H187.733C187.919 30.1282 188.011 29.5719 188.011 29.1495C188.011 28.2945 187.661 27.7794 186.961 27.6042C186.806 27.563 186.631 27.5424 186.435 27.5424C186.033 27.5424 185.642 27.6454 185.261 27.8515C184.89 28.0472 184.586 28.3254 184.349 28.6859C184.112 29.0362 183.994 29.4431 183.994 29.9067C183.994 30.3291 184.097 30.7412 184.303 31.143C184.509 31.5344 184.828 32.0392 185.261 32.6574C185.704 33.2755 186.033 33.806 186.25 34.249C186.476 34.692 186.59 35.1453 186.59 35.6089C186.59 36.1034 186.435 36.5876 186.126 37.0615C185.817 37.5251 185.39 37.9011 184.844 38.1895C184.298 38.478 183.695 38.6222 183.036 38.6222C182.84 38.6222 182.696 38.6171 182.603 38.6068C182.129 38.5656 181.717 38.4368 181.367 38.2204C181.027 37.9938 180.769 37.7362 180.594 37.4478L181.258 35.4389H181.413Z" stroke="#467A00" stroke-width="0.6" stroke-linejoin="round" mask="url(#path-3-outside-2_139_30)"/>
<path d="M198.445 27.7124C198.115 27.7124 197.863 27.7691 197.688 27.8824C197.513 27.9957 197.348 28.2275 197.193 28.5778L193.933 37.386C193.871 37.5714 193.84 37.7259 193.84 37.8496C193.84 37.9732 193.892 38.0659 193.995 38.1277C194.098 38.1895 194.268 38.2204 194.505 38.2204V38.375H191.491L191.507 38.2204C191.847 38.1998 192.115 38.1071 192.31 37.9423C192.506 37.7775 192.676 37.5199 192.82 37.1696L194.319 33.1519H190.811L189.251 37.386C189.189 37.5714 189.158 37.7259 189.158 37.8496C189.158 37.9732 189.209 38.0659 189.312 38.1277C189.415 38.1895 189.585 38.2204 189.822 38.2204V38.375H186.809L186.824 38.2204C187.164 38.1998 187.432 38.1071 187.628 37.9423C187.824 37.7775 187.994 37.5199 188.138 37.1696L191.213 28.8868C191.337 28.5263 191.399 28.2687 191.399 28.1142C191.399 27.9596 191.347 27.8566 191.244 27.8051C191.141 27.7433 190.971 27.7124 190.734 27.7124L190.765 27.5579H193.825L193.763 27.7124C193.433 27.7124 193.181 27.7691 193.006 27.8824C192.831 27.9957 192.666 28.2275 192.511 28.5778L190.919 32.8428H194.427L195.895 28.8868C196.019 28.5263 196.081 28.2687 196.081 28.1142C196.081 27.9596 196.029 27.8566 195.926 27.8051C195.823 27.7433 195.653 27.7124 195.416 27.7124L195.447 27.5579H198.507L198.445 27.7124Z" stroke="white" stroke-width="0.6" stroke-linejoin="round" mask="url(#path-3-outside-2_139_30)"/>
<path d="M198.445 27.7124C198.115 27.7124 197.863 27.7691 197.688 27.8824C197.513 27.9957 197.348 28.2275 197.193 28.5778L193.933 37.386C193.871 37.5714 193.84 37.7259 193.84 37.8496C193.84 37.9732 193.892 38.0659 193.995 38.1277C194.098 38.1895 194.268 38.2204 194.505 38.2204V38.375H191.491L191.507 38.2204C191.847 38.1998 192.115 38.1071 192.31 37.9423C192.506 37.7775 192.676 37.5199 192.82 37.1696L194.319 33.1519H190.811L189.251 37.386C189.189 37.5714 189.158 37.7259 189.158 37.8496C189.158 37.9732 189.209 38.0659 189.312 38.1277C189.415 38.1895 189.585 38.2204 189.822 38.2204V38.375H186.809L186.824 38.2204C187.164 38.1998 187.432 38.1071 187.628 37.9423C187.824 37.7775 187.994 37.5199 188.138 37.1696L191.213 28.8868C191.337 28.5263 191.399 28.2687 191.399 28.1142C191.399 27.9596 191.347 27.8566 191.244 27.8051C191.141 27.7433 190.971 27.7124 190.734 27.7124L190.765 27.5579H193.825L193.763 27.7124C193.433 27.7124 193.181 27.7691 193.006 27.8824C192.831 27.9957 192.666 28.2275 192.511 28.5778L190.919 32.8428H194.427L195.895 28.8868C196.019 28.5263 196.081 28.2687 196.081 28.1142C196.081 27.9596 196.029 27.8566 195.926 27.8051C195.823 27.7433 195.653 27.7124 195.416 27.7124L195.447 27.5579H198.507L198.445 27.7124Z" stroke="#467A00" stroke-width="0.6" stroke-linejoin="round" mask="url(#path-3-outside-2_139_30)"/>
<path d="M202.682 27.7124C202.352 27.7124 202.099 27.7691 201.924 27.8824C201.749 27.9957 201.584 28.2275 201.43 28.5778L198.169 37.386C198.107 37.5714 198.077 37.7259 198.077 37.8496C198.077 37.9732 198.128 38.0659 198.231 38.1277C198.334 38.1895 198.504 38.2204 198.741 38.2204V38.375H195.728L195.743 38.2204C196.083 38.1998 196.351 38.1071 196.547 37.9423C196.742 37.7775 196.912 37.5199 197.057 37.1696L200.132 28.8868C200.255 28.5263 200.317 28.2687 200.317 28.1142C200.317 27.9596 200.266 27.8566 200.163 27.8051C200.06 27.7433 199.89 27.7124 199.653 27.7124L199.684 27.5579H202.743L202.682 27.7124Z" stroke="white" stroke-width="0.6" stroke-linejoin="round" mask="url(#path-3-outside-2_139_30)"/>
<path d="M202.682 27.7124C202.352 27.7124 202.099 27.7691 201.924 27.8824C201.749 27.9957 201.584 28.2275 201.43 28.5778L198.169 37.386C198.107 37.5714 198.077 37.7259 198.077 37.8496C198.077 37.9732 198.128 38.0659 198.231 38.1277C198.334 38.1895 198.504 38.2204 198.741 38.2204V38.375H195.728L195.743 38.2204C196.083 38.1998 196.351 38.1071 196.547 37.9423C196.742 37.7775 196.912 37.5199 197.057 37.1696L200.132 28.8868C200.255 28.5263 200.317 28.2687 200.317 28.1142C200.317 27.9596 200.266 27.8566 200.163 27.8051C200.06 27.7433 199.89 27.7124 199.653 27.7124L199.684 27.5579H202.743L202.682 27.7124Z" stroke="#467A00" stroke-width="0.6" stroke-linejoin="round" mask="url(#path-3-outside-2_139_30)"/>
<path d="M211.645 27.5579L211.629 27.7124C211.248 27.7124 210.949 27.8206 210.733 28.0369C210.527 28.2429 210.321 28.6344 210.115 29.2113L207.009 38.4059H206.669L206.715 38.2513L206.669 38.3904L204.846 28.5623L204.722 28.9023L202.095 36.737C201.951 37.1902 201.879 37.5148 201.879 37.7105C201.879 37.8959 201.935 38.0299 202.049 38.1123C202.162 38.1844 202.347 38.2204 202.605 38.2204V38.375H200.21L200.225 38.2204C200.596 38.2204 200.884 38.1277 201.09 37.9423C201.297 37.7465 201.497 37.3911 201.693 36.876L204.305 29.1032C204.315 29.0723 204.325 29.0465 204.336 29.0259C204.346 28.995 204.356 28.9692 204.367 28.9486L204.459 28.6396C204.531 28.4232 204.567 28.243 204.567 28.0987C204.567 27.9442 204.516 27.8412 204.413 27.7897C204.32 27.7382 204.155 27.7124 203.918 27.7124L203.98 27.5579H205.85L207.442 36.0879L209.806 29.0414C209.919 28.6705 209.976 28.3975 209.976 28.2223C209.976 28.0369 209.919 27.9081 209.806 27.836C209.693 27.7536 209.507 27.7124 209.25 27.7124V27.5579H211.645Z" stroke="white" stroke-width="0.6" stroke-linejoin="round" mask="url(#path-3-outside-2_139_30)"/>
<path d="M211.645 27.5579L211.629 27.7124C211.248 27.7124 210.949 27.8206 210.733 28.0369C210.527 28.2429 210.321 28.6344 210.115 29.2113L207.009 38.4059H206.669L206.715 38.2513L206.669 38.3904L204.846 28.5623L204.722 28.9023L202.095 36.737C201.951 37.1902 201.879 37.5148 201.879 37.7105C201.879 37.8959 201.935 38.0299 202.049 38.1123C202.162 38.1844 202.347 38.2204 202.605 38.2204V38.375H200.21L200.225 38.2204C200.596 38.2204 200.884 38.1277 201.09 37.9423C201.297 37.7465 201.497 37.3911 201.693 36.876L204.305 29.1032C204.315 29.0723 204.325 29.0465 204.336 29.0259C204.346 28.995 204.356 28.9692 204.367 28.9486L204.459 28.6396C204.531 28.4232 204.567 28.243 204.567 28.0987C204.567 27.9442 204.516 27.8412 204.413 27.7897C204.32 27.7382 204.155 27.7124 203.918 27.7124L203.98 27.5579H205.85L207.442 36.0879L209.806 29.0414C209.919 28.6705 209.976 28.3975 209.976 28.2223C209.976 28.0369 209.919 27.9081 209.806 27.836C209.693 27.7536 209.507 27.7124 209.25 27.7124V27.5579H211.645Z" stroke="#467A00" stroke-width="0.6" stroke-linejoin="round" mask="url(#path-3-outside-2_139_30)"/>
<path d="M221.69 27.7124C221.422 27.7124 221.211 27.7485 221.056 27.8206C220.902 27.8824 220.758 28.0112 220.624 28.2069C220.5 28.4026 220.366 28.7014 220.222 29.1032L217.997 35.068C217.585 36.16 217.028 36.9894 216.328 37.556C215.627 38.1226 214.901 38.4059 214.149 38.4059C213.593 38.4059 213.165 38.2616 212.866 37.9732C212.568 37.6744 212.418 37.283 212.418 36.7988C212.418 36.4485 212.511 36.1394 212.696 35.8716C212.882 35.6037 213.103 35.4698 213.361 35.4698C213.453 35.4698 213.536 35.4853 213.608 35.5162C213.824 35.5986 213.933 35.7583 213.933 35.9952C213.933 36.2012 213.85 36.4279 213.685 36.6751C213.469 36.9945 213.361 37.283 213.361 37.5405C213.361 37.7362 213.433 37.8856 213.577 37.9886C213.711 38.0917 213.907 38.1432 214.164 38.1432C214.545 38.1432 214.885 38.0299 215.184 37.8032C215.493 37.5663 215.787 37.2005 216.065 36.706C216.353 36.2012 216.657 35.5213 216.977 34.6662L219.248 28.5623C219.3 28.3563 219.326 28.2017 219.326 28.0987C219.326 27.9442 219.274 27.8412 219.171 27.7897C219.068 27.7382 218.898 27.7124 218.661 27.7124L218.692 27.5579H221.752L221.69 27.7124Z" stroke="white" stroke-width="0.6" stroke-linejoin="round" mask="url(#path-3-outside-2_139_30)"/>
<path d="M221.69 27.7124C221.422 27.7124 221.211 27.7485 221.056 27.8206C220.902 27.8824 220.758 28.0112 220.624 28.2069C220.5 28.4026 220.366 28.7014 220.222 29.1032L217.997 35.068C217.585 36.16 217.028 36.9894 216.328 37.556C215.627 38.1226 214.901 38.4059 214.149 38.4059C213.593 38.4059 213.165 38.2616 212.866 37.9732C212.568 37.6744 212.418 37.283 212.418 36.7988C212.418 36.4485 212.511 36.1394 212.696 35.8716C212.882 35.6037 213.103 35.4698 213.361 35.4698C213.453 35.4698 213.536 35.4853 213.608 35.5162C213.824 35.5986 213.933 35.7583 213.933 35.9952C213.933 36.2012 213.85 36.4279 213.685 36.6751C213.469 36.9945 213.361 37.283 213.361 37.5405C213.361 37.7362 213.433 37.8856 213.577 37.9886C213.711 38.0917 213.907 38.1432 214.164 38.1432C214.545 38.1432 214.885 38.0299 215.184 37.8032C215.493 37.5663 215.787 37.2005 216.065 36.706C216.353 36.2012 216.657 35.5213 216.977 34.6662L219.248 28.5623C219.3 28.3563 219.326 28.2017 219.326 28.0987C219.326 27.9442 219.274 27.8412 219.171 27.7897C219.068 27.7382 218.898 27.7124 218.661 27.7124L218.692 27.5579H221.752L221.69 27.7124Z" stroke="#467A00" stroke-width="0.6" stroke-linejoin="round" mask="url(#path-3-outside-2_139_30)"/>
<path d="M225.77 27.7124C225.441 27.7124 225.188 27.7691 225.013 27.8824C224.838 27.9957 224.673 28.2275 224.519 28.5778L221.258 37.386C221.196 37.5714 221.165 37.7259 221.165 37.8496C221.165 37.9732 221.217 38.0659 221.32 38.1277C221.423 38.1895 221.593 38.2204 221.83 38.2204V38.375H218.817L218.832 38.2204C219.172 38.1998 219.44 38.1071 219.636 37.9423C219.831 37.7775 220.001 37.5199 220.146 37.1696L223.221 28.8868C223.344 28.5263 223.406 28.2687 223.406 28.1142C223.406 27.9596 223.355 27.8566 223.252 27.8051C223.149 27.7433 222.979 27.7124 222.742 27.7124L222.773 27.5579H225.832L225.77 27.7124Z" stroke="white" stroke-width="0.6" stroke-linejoin="round" mask="url(#path-3-outside-2_139_30)"/>
<path d="M225.77 27.7124C225.441 27.7124 225.188 27.7691 225.013 27.8824C224.838 27.9957 224.673 28.2275 224.519 28.5778L221.258 37.386C221.196 37.5714 221.165 37.7259 221.165 37.8496C221.165 37.9732 221.217 38.0659 221.32 38.1277C221.423 38.1895 221.593 38.2204 221.83 38.2204V38.375H218.817L218.832 38.2204C219.172 38.1998 219.44 38.1071 219.636 37.9423C219.831 37.7775 220.001 37.5199 220.146 37.1696L223.221 28.8868C223.344 28.5263 223.406 28.2687 223.406 28.1142C223.406 27.9596 223.355 27.8566 223.252 27.8051C223.149 27.7433 222.979 27.7124 222.742 27.7124L222.773 27.5579H225.832L225.77 27.7124Z" stroke="#467A00" stroke-width="0.6" stroke-linejoin="round" mask="url(#path-3-outside-2_139_30)"/>
<path d="M234.734 27.5579L234.718 27.7124C234.337 27.7124 234.038 27.8206 233.822 28.0369C233.616 28.2429 233.41 28.6344 233.204 29.2113L230.098 38.4059H229.758L229.804 38.2513L229.758 38.3904L227.935 28.5623L227.811 28.9023L225.184 36.737C225.04 37.1902 224.968 37.5148 224.968 37.7105C224.968 37.8959 225.024 38.0299 225.138 38.1123C225.251 38.1844 225.436 38.2204 225.694 38.2204V38.375H223.299L223.314 38.2204C223.685 38.2204 223.973 38.1277 224.179 37.9423C224.385 37.7465 224.586 37.3911 224.782 36.876L227.394 29.1032C227.404 29.0723 227.414 29.0465 227.425 29.0259C227.435 28.995 227.445 28.9692 227.455 28.9486L227.548 28.6396C227.62 28.4232 227.656 28.243 227.656 28.0987C227.656 27.9442 227.605 27.8412 227.502 27.7897C227.409 27.7382 227.244 27.7124 227.007 27.7124L227.069 27.5579H228.939L230.531 36.0879L232.895 29.0414C233.008 28.6705 233.065 28.3975 233.065 28.2223C233.065 28.0369 233.008 27.9081 232.895 27.836C232.782 27.7536 232.596 27.7124 232.339 27.7124V27.5579H234.734Z" stroke="white" stroke-width="0.6" stroke-linejoin="round" mask="url(#path-3-outside-2_139_30)"/>
<path d="M234.734 27.5579L234.718 27.7124C234.337 27.7124 234.038 27.8206 233.822 28.0369C233.616 28.2429 233.41 28.6344 233.204 29.2113L230.098 38.4059H229.758L229.804 38.2513L229.758 38.3904L227.935 28.5623L227.811 28.9023L225.184 36.737C225.04 37.1902 224.968 37.5148 224.968 37.7105C224.968 37.8959 225.024 38.0299 225.138 38.1123C225.251 38.1844 225.436 38.2204 225.694 38.2204V38.375H223.299L223.314 38.2204C223.685 38.2204 223.973 38.1277 224.179 37.9423C224.385 37.7465 224.586 37.3911 224.782 36.876L227.394 29.1032C227.404 29.0723 227.414 29.0465 227.425 29.0259C227.435 28.995 227.445 28.9692 227.455 28.9486L227.548 28.6396C227.62 28.4232 227.656 28.243 227.656 28.0987C227.656 27.9442 227.605 27.8412 227.502 27.7897C227.409 27.7382 227.244 27.7124 227.007 27.7124L227.069 27.5579H228.939L230.531 36.0879L232.895 29.0414C233.008 28.6705 233.065 28.3975 233.065 28.2223C233.065 28.0369 233.008 27.9081 232.895 27.836C232.782 27.7536 232.596 27.7124 232.339 27.7124V27.5579H234.734Z" stroke="#467A00" stroke-width="0.6" stroke-linejoin="round" mask="url(#path-3-outside-2_139_30)"/>
<path d="M243.582 27.7124C243.252 27.7124 243 27.7691 242.825 27.8824C242.649 27.9957 242.485 28.2275 242.33 28.5778L239.069 37.386C239.008 37.5714 238.977 37.7259 238.977 37.8496C238.977 37.9732 239.028 38.0659 239.131 38.1277C239.234 38.1895 239.404 38.2204 239.641 38.2204V38.375H236.628L236.643 38.2204C236.983 38.1998 237.251 38.1071 237.447 37.9423C237.643 37.7775 237.813 37.5199 237.957 37.1696L239.456 33.1519H235.948L234.387 37.386C234.325 37.5714 234.295 37.7259 234.295 37.8496C234.295 37.9732 234.346 38.0659 234.449 38.1277C234.552 38.1895 234.722 38.2204 234.959 38.2204V38.375H231.946L231.961 38.2204C232.301 38.1998 232.569 38.1071 232.765 37.9423C232.96 37.7775 233.13 37.5199 233.275 37.1696L236.35 28.8868C236.473 28.5263 236.535 28.2687 236.535 28.1142C236.535 27.9596 236.484 27.8566 236.381 27.8051C236.278 27.7433 236.108 27.7124 235.871 27.7124L235.902 27.5579H238.961L238.9 27.7124C238.57 27.7124 238.317 27.7691 238.142 27.8824C237.967 27.9957 237.802 28.2275 237.648 28.5778L236.056 32.8428H239.564L241.032 28.8868C241.156 28.5263 241.217 28.2687 241.217 28.1142C241.217 27.9596 241.166 27.8566 241.063 27.8051C240.96 27.7433 240.79 27.7124 240.553 27.7124L240.584 27.5579H243.644L243.582 27.7124Z" stroke="white" stroke-width="0.6" stroke-linejoin="round" mask="url(#path-3-outside-2_139_30)"/>
<path d="M243.582 27.7124C243.252 27.7124 243 27.7691 242.825 27.8824C242.649 27.9957 242.485 28.2275 242.33 28.5778L239.069 37.386C239.008 37.5714 238.977 37.7259 238.977 37.8496C238.977 37.9732 239.028 38.0659 239.131 38.1277C239.234 38.1895 239.404 38.2204 239.641 38.2204V38.375H236.628L236.643 38.2204C236.983 38.1998 237.251 38.1071 237.447 37.9423C237.643 37.7775 237.813 37.5199 237.957 37.1696L239.456 33.1519H235.948L234.387 37.386C234.325 37.5714 234.295 37.7259 234.295 37.8496C234.295 37.9732 234.346 38.0659 234.449 38.1277C234.552 38.1895 234.722 38.2204 234.959 38.2204V38.375H231.946L231.961 38.2204C232.301 38.1998 232.569 38.1071 232.765 37.9423C232.96 37.7775 233.13 37.5199 233.275 37.1696L236.35 28.8868C236.473 28.5263 236.535 28.2687 236.535 28.1142C236.535 27.9596 236.484 27.8566 236.381 27.8051C236.278 27.7433 236.108 27.7124 235.871 27.7124L235.902 27.5579H238.961L238.9 27.7124C238.57 27.7124 238.317 27.7691 238.142 27.8824C237.967 27.9957 237.802 28.2275 237.648 28.5778L236.056 32.8428H239.564L241.032 28.8868C241.156 28.5263 241.217 28.2687 241.217 28.1142C241.217 27.9596 241.166 27.8566 241.063 27.8051C240.96 27.7433 240.79 27.7124 240.553 27.7124L240.584 27.5579H243.644L243.582 27.7124Z" stroke="#467A00" stroke-width="0.6" stroke-linejoin="round" mask="url(#path-3-outside-2_139_30)"/>
<path d="M249.734 30.8648H249.595L249.673 30.5557C249.734 30.2879 249.791 30.02 249.843 29.7522C249.894 29.4843 249.92 29.2577 249.92 29.0723C249.92 28.6911 249.812 28.3975 249.595 28.1914C249.389 27.9854 249.034 27.8772 248.529 27.8669H246.829L246.366 29.1032L244.975 32.8428H246.69C247.205 32.8428 247.586 32.7295 247.834 32.5028C248.091 32.2762 248.292 31.9568 248.436 31.5447H248.606L248.081 32.9973L247.571 34.5117L247.432 34.4963C247.514 34.1975 247.555 33.9657 247.555 33.8009C247.555 33.5742 247.478 33.4094 247.324 33.3064C247.169 33.2034 246.906 33.1519 246.536 33.1519H244.867L243.507 36.8297L243.043 38.0659H244.928C245.578 38.0659 246.118 37.9268 246.551 37.6487C246.984 37.3705 247.324 37.0409 247.571 36.6597C247.818 36.2785 248.117 35.748 248.467 35.068H248.622L247.2 38.375H240.864L240.911 38.2204C241.23 38.2204 241.472 38.1689 241.637 38.0659C241.802 37.9526 241.962 37.7259 242.116 37.386L245.268 28.8714C245.402 28.4902 245.469 28.2275 245.469 28.0833C245.469 27.939 245.418 27.8412 245.315 27.7897C245.212 27.7382 245.042 27.7124 244.805 27.7124L244.851 27.5579H250.801L249.734 30.8648Z" stroke="white" stroke-width="0.6" stroke-linejoin="round" mask="url(#path-3-outside-2_139_30)"/>
<path d="M249.734 30.8648H249.595L249.673 30.5557C249.734 30.2879 249.791 30.02 249.843 29.7522C249.894 29.4843 249.92 29.2577 249.92 29.0723C249.92 28.6911 249.812 28.3975 249.595 28.1914C249.389 27.9854 249.034 27.8772 248.529 27.8669H246.829L246.366 29.1032L244.975 32.8428H246.69C247.205 32.8428 247.586 32.7295 247.834 32.5028C248.091 32.2762 248.292 31.9568 248.436 31.5447H248.606L248.081 32.9973L247.571 34.5117L247.432 34.4963C247.514 34.1975 247.555 33.9657 247.555 33.8009C247.555 33.5742 247.478 33.4094 247.324 33.3064C247.169 33.2034 246.906 33.1519 246.536 33.1519H244.867L243.507 36.8297L243.043 38.0659H244.928C245.578 38.0659 246.118 37.9268 246.551 37.6487C246.984 37.3705 247.324 37.0409 247.571 36.6597C247.818 36.2785 248.117 35.748 248.467 35.068H248.622L247.2 38.375H240.864L240.911 38.2204C241.23 38.2204 241.472 38.1689 241.637 38.0659C241.802 37.9526 241.962 37.7259 242.116 37.386L245.268 28.8714C245.402 28.4902 245.469 28.2275 245.469 28.0833C245.469 27.939 245.418 27.8412 245.315 27.7897C245.212 27.7382 245.042 27.7124 244.805 27.7124L244.851 27.5579H250.801L249.734 30.8648Z" stroke="#467A00" stroke-width="0.6" stroke-linejoin="round" mask="url(#path-3-outside-2_139_30)"/>
<path d="M257.204 30.8648H257.065L257.143 30.5557C257.204 30.2879 257.261 30.02 257.312 29.7522C257.364 29.4843 257.39 29.2577 257.39 29.0723C257.39 28.6911 257.282 28.3975 257.065 28.1914C256.859 27.9854 256.504 27.8772 255.999 27.8669H254.299L253.836 29.1032L252.445 32.8428H254.16C254.675 32.8428 255.056 32.7295 255.304 32.5028C255.561 32.2762 255.762 31.9568 255.906 31.5447H256.076L255.551 32.9973L255.041 34.5117L254.902 34.4963C254.984 34.1975 255.025 33.9657 255.025 33.8009C255.025 33.5742 254.948 33.4094 254.794 33.3064C254.639 33.2034 254.376 33.1519 254.006 33.1519H252.337L250.977 36.8297L250.513 38.0659H252.398C253.047 38.0659 253.588 37.9268 254.021 37.6487C254.454 37.3705 254.794 37.0409 255.041 36.6597C255.288 36.2785 255.587 35.748 255.937 35.068H256.092L254.67 38.375H248.334L248.381 38.2204C248.7 38.2204 248.942 38.1689 249.107 38.0659C249.272 37.9526 249.431 37.7259 249.586 37.386L252.738 28.8714C252.872 28.4902 252.939 28.2275 252.939 28.0833C252.939 27.939 252.888 27.8412 252.785 27.7897C252.682 27.7382 252.512 27.7124 252.275 27.7124L252.321 27.5579H258.271L257.204 30.8648Z" stroke="white" stroke-width="0.6" stroke-linejoin="round" mask="url(#path-3-outside-2_139_30)"/>
<path d="M257.204 30.8648H257.065L257.143 30.5557C257.204 30.2879 257.261 30.02 257.312 29.7522C257.364 29.4843 257.39 29.2577 257.39 29.0723C257.39 28.6911 257.282 28.3975 257.065 28.1914C256.859 27.9854 256.504 27.8772 255.999 27.8669H254.299L253.836 29.1032L252.445 32.8428H254.16C254.675 32.8428 255.056 32.7295 255.304 32.5028C255.561 32.2762 255.762 31.9568 255.906 31.5447H256.076L255.551 32.9973L255.041 34.5117L254.902 34.4963C254.984 34.1975 255.025 33.9657 255.025 33.8009C255.025 33.5742 254.948 33.4094 254.794 33.3064C254.639 33.2034 254.376 33.1519 254.006 33.1519H252.337L250.977 36.8297L250.513 38.0659H252.398C253.047 38.0659 253.588 37.9268 254.021 37.6487C254.454 37.3705 254.794 37.0409 255.041 36.6597C255.288 36.2785 255.587 35.748 255.937 35.068H256.092L254.67 38.375H248.334L248.381 38.2204C248.7 38.2204 248.942 38.1689 249.107 38.0659C249.272 37.9526 249.431 37.7259 249.586 37.386L252.738 28.8714C252.872 28.4902 252.939 28.2275 252.939 28.0833C252.939 27.939 252.888 27.8412 252.785 27.7897C252.682 27.7382 252.512 27.7124 252.275 27.7124L252.321 27.5579H258.271L257.204 30.8648Z" stroke="#467A00" stroke-width="0.6" stroke-linejoin="round" mask="url(#path-3-outside-2_139_30)"/>
</svg>
